<svg width="60" height="47" viewBox="0 0 60 47" fill="none" xmlns="http://www.w3.org/2000/svg">
<path fill-rule="evenodd" clip-rule="evenodd" d="M47.4795 31.3506C47.9288 31.1742 48.1891 30.9582 48.7881 30.8258C50.2457 30.5035 51.8038 30.9756 52.384 32.4355C53.0534 34.12 52.2525 36.9455 51.4572 38.2218C51.2488 38.2182 50.0596 37.91 49.9048 37.8135L50.2525 37.0704C49.7194 37.2456 49.4705 37.3972 48.784 37.3843C45.4143 37.3217 45.3085 33.7151 48.2199 33.2879C49.7736 33.0597 50.6524 33.8211 51.0828 33.8852C51.0223 33.1498 50.7596 32.5951 50.2316 32.3588C49.5235 32.0419 48.8591 32.3992 48.3389 32.6424C48.2008 32.5044 47.5328 31.5417 47.4795 31.3506ZM33.4334 29.5187C33.8761 28.9424 34.6794 28.2888 35.7371 28.0638C36.3074 27.9425 36.9292 27.9869 37.4558 28.1603C39.87 28.9558 39.991 32.7643 39.8235 35.2298L38.0794 35.1875L38.0899 34.4768C37.879 34.5729 37.0298 35.5661 35.1943 35.4257C32.8511 35.2459 32.4 32.5023 34.5491 31.2892C35.6002 30.6961 36.4398 30.7527 37.7328 30.8659C37.3959 29.3952 35.8377 29.1505 34.7636 30.5514C34.6282 30.5029 33.582 29.6615 33.4334 29.5187ZM16.4762 26.4353C18.3446 25.9399 18.9476 29.4842 17.1429 29.9239C16.1796 30.1584 15.536 29.2647 15.4105 28.4712C15.2592 27.5163 15.7304 26.633 16.4762 26.4353ZM21.5259 25.4606C22.3949 25.3211 23.0418 26.1828 23.1904 26.9196C23.3863 27.8925 22.9035 28.8693 22.0846 28.9822C20.2287 29.238 19.6122 25.7677 21.5259 25.4606ZM42.1122 26.0226L43.3565 31.9263C43.4553 31.7564 43.5024 31.5653 43.5958 31.3808C44.0787 30.4262 44.9155 29.3416 45.7144 28.6881C46.7789 27.817 48.7681 26.3892 50.5218 26.3053C50.6446 26.5219 50.9579 27.8335 51.0029 28.1435C48.9118 28.4613 47.5987 29.3824 46.3104 30.7976C45.7815 31.3787 45.2917 32.2138 44.8703 33.0561C44.4779 33.84 44.1544 34.8664 43.9888 35.8303C43.8276 35.8696 42.6119 35.6824 42.2908 35.6225L42.0778 35.5503L40.133 26.4341L42.1122 26.0226ZM27.9341 23.0941C28.1904 23.242 29.1804 24.5453 31.3529 24.9122C32.1382 25.0449 32.9449 24.9958 33.6913 24.7717C34.0337 24.669 34.3158 24.5555 34.6123 24.4027C34.8729 24.2682 35.262 23.9801 35.4723 23.9055C35.6068 24.2335 36.5248 25.3459 36.653 25.6505C35.7368 26.3239 34.778 26.7612 33.5907 27.0329C31.4811 27.5151 32.7148 26.4206 31.8471 29.967C31.2714 32.3201 29.9014 35.0081 28.094 36.5944L26.7587 37.6658C22.5045 40.7507 16.0712 40.6569 11.8994 37.6338C10.8498 36.873 10.1891 36.2215 9.4073 35.2699C8.99365 34.7664 7.82549 32.9665 7.65835 32.153L9.79459 31.2155C10.0465 31.5902 10.21 32.4415 11.2689 33.7651C11.8287 34.4648 12.5544 35.1842 13.3689 35.7192C15.1597 36.8951 17.1819 37.6706 19.7818 37.6706C23.3243 37.6706 26.5388 35.5877 28.156 33.004C29.2103 31.3191 29.9622 29.073 30.0349 26.9903C29.8157 26.8277 27.7984 26.3733 26.2998 24.6238L27.4913 23.4739C27.633 23.3502 27.7678 23.2064 27.9341 23.0941ZM34.9119 22.6241C34.7283 22.8398 34.0217 23.0797 33.6856 23.1633C33.1659 23.2927 32.6133 23.3031 32.0759 23.2043C29.0489 22.6484 28.5789 18.614 31.0959 16.9202C32.9086 15.7005 35.3165 16.6701 35.4738 18.5236C35.6448 20.5409 33.2965 20.8173 31.5811 19.9568C31.434 19.8831 31.1687 19.6869 31.0399 19.7118C30.9446 20.5942 31.3586 21.231 31.9301 21.5248C32.8763 22.0113 33.7269 21.4029 34.1373 21.2933L34.9119 22.6241ZM38.0402 22.2719C38.1564 22.3375 38.476 22.7223 38.6805 22.8817C38.889 23.044 39.2308 23.2121 39.5615 23.254C40.6727 23.3948 40.9501 22.4546 40.6242 22.0499C40.0407 21.3253 38.2519 21.393 37.4201 20.3555C37.0382 19.8792 36.8702 19.0858 37.1389 18.3741C37.347 17.8236 37.8281 17.3683 38.3445 17.1298C39.7466 16.4823 41.4856 17.2787 41.8226 18.0383L40.4532 18.9977C40.1941 18.7584 40.1668 18.5589 39.7382 18.4382C39.3644 18.3328 39.0073 18.4969 38.8594 18.7144C38.358 19.4521 39.2146 19.8451 39.7996 20.0272C41.1951 20.4615 42.4804 20.7203 42.5508 22.3551C42.617 23.8908 41.5063 24.8155 40.0952 24.9895C38.7243 25.1584 37.3021 24.2194 36.86 23.2924L38.0402 22.2719ZM21.7886 17.5438C21.7503 18.6383 21.7314 19.5734 22.2849 20.3878C22.9095 21.3074 23.9171 21.1088 24.5056 20.3546C25.6516 18.8863 26.0961 14.163 30.4762 12.6932C32.7166 11.9411 34.3688 12.4671 36.3793 12.9206L35.9102 14.9649C35.4789 14.8939 35.0293 14.7429 34.5665 14.6587C33.1773 14.4059 31.5916 14.4685 30.4088 15.1646C26.9528 17.1978 27.6124 21.3104 24.9331 22.787C24.1261 23.2318 23.1533 23.2642 22.2313 22.9359C21.2432 22.584 20.967 22.0697 20.5243 21.3912C20.2919 21.6054 20.1463 22.0182 19.3502 22.5947C16.8503 24.4051 12.8312 22.2937 14.0069 17.5606C14.2078 16.7515 15.0528 14.7228 15.5485 14.3508C15.6615 14.4278 16.9644 15.3542 17.0686 15.4959C16.8647 15.9144 16.7032 16.0626 16.4381 16.697C15.9035 17.976 15.7031 20.103 16.6826 20.9102C17.5266 21.6057 18.4579 20.7161 18.9152 20.0203C19.3052 19.4269 19.7848 18.286 19.957 17.4872L21.7886 17.5438ZM44.043 13.9584C44.1466 13.7236 44.2335 13.2977 44.3105 13.0263C44.5088 12.329 44.9365 11.0572 45.2261 10.4758C45.5128 10.5654 46.9712 11.1243 47.1317 11.2633C46.917 11.9124 46.3155 13.0296 46.2481 13.7023C47.4555 13.4963 47.7781 13.2522 48.6507 13.0257C48.7279 13.1234 48.7136 13.1114 48.7669 13.2426L49.368 14.783C49.0997 15.0194 48.1028 15.3605 47.6628 15.489C46.7774 15.7475 46.6435 15.7149 45.9423 15.8592L45.741 15.9452C45.5305 16.644 45.3957 18.4454 45.3957 19.2382C45.3957 20.6999 45.5982 22.4615 46.4533 23.3064C46.9365 23.7839 47.6161 23.8594 48.228 23.4035C48.5659 23.1522 48.9628 22.3315 48.9115 21.6434L48.8681 21.0962L50.8477 20.531C51.4818 22.7083 50.284 25.8761 47.0467 25.8761C44.2332 25.8761 43.3196 22.4049 43.3196 19.5947V19.1046C43.3196 17.6438 43.5347 17.1056 43.606 16.042C42.5567 16.0542 38.5323 15.7562 37.8544 15.3599L38.3232 13.3684C39.0867 13.487 39.8457 13.6736 40.6464 13.7829C41.9406 13.9599 42.8051 13.9965 44.043 13.9584ZM18.9527 13.6248C18.9653 13.6182 18.9814 13.6134 18.9919 13.6098C19.0027 13.6065 19.0183 13.5999 19.0315 13.596C19.2992 13.5178 19.4882 13.5571 19.8606 13.348C20.0388 13.248 20.4689 12.9706 20.2997 12.6699C20.0864 12.2907 19.0776 13.0407 18.4624 12.8882C17.8624 12.74 17.7183 11.8914 18.1131 11.4223C18.4249 11.0518 18.9557 10.6684 19.6479 10.6235L19.7554 11.1743L19.6506 11.2169C19.6125 11.2291 19.5787 11.2357 19.5416 11.2444C19.2915 11.3028 19.1929 11.3238 18.9569 11.464C18.7619 11.5796 18.5142 11.7548 18.5956 12.0993C18.8395 12.5285 20.0711 11.535 20.6678 11.981C20.828 12.1008 20.9712 12.3059 21.0101 12.5312C21.1743 13.4783 19.7968 14.2175 19.068 14.1678C18.9928 14.0288 18.9739 13.8072 18.9527 13.6248ZM24.6818 8.25302C24.7785 8.35486 25.7115 10.8736 25.7951 11.1944L25.1541 11.416L24.5173 9.72011C24.3586 10.1436 24.3163 11.1264 24.1471 11.4439C23.8793 11.697 23.4603 11.2294 23.2641 11.077C23.1209 10.9655 22.5806 10.5603 22.5054 10.4944L23.1062 12.1544C22.9873 12.2679 22.6653 12.3527 22.4985 12.4027C22.4086 12.3098 21.4801 9.77103 21.4028 9.48138C21.8923 9.05905 22.1822 9.42897 22.3377 9.55327C22.4392 9.63474 22.5243 9.70214 22.6093 9.77133L23.7014 10.6403L23.8374 10.1053C23.8706 9.92259 23.9063 9.73119 23.9404 9.54339C24.0072 9.17706 24.0983 8.79217 24.1402 8.44352L24.6818 8.25302ZM42.8407 9.86119C42.8152 9.98819 42.4921 10.9841 42.4549 11.0371C42.2662 11.3058 41.5102 11.183 41.1999 11.0943C39.2763 10.545 39.6498 8.04574 41.3461 7.8837C42.197 7.80223 43.0791 8.34018 43.2226 8.94014L42.6808 9.17107C42.5157 9.03688 42.4118 8.63761 41.7894 8.53877C40.3423 8.30843 40.1713 10.731 41.9137 10.5375C42.029 10.2566 42.0724 9.91001 42.2372 9.67817L42.8407 9.86119ZM27.3455 7.64258L28.0113 10.6972L27.3095 10.8505L26.6293 7.77527L27.3455 7.64258ZM33.3981 6.89615L34.1241 6.88147L34.2275 10.0229L33.4969 10.0382L33.3981 6.89615ZM29.8927 7.19149L30.2144 9.69884C30.5894 9.68956 31.4999 9.4712 31.786 9.54488L31.8492 10.1047L29.5824 10.3782C29.5147 10.2104 29.1654 7.47484 29.1855 7.26847L29.8927 7.19149ZM35.8 9.98998C35.7467 9.68237 36.0067 7.34844 36.0639 6.87129C36.1693 6.86171 36.4314 6.87429 36.5353 6.89346C36.7177 6.9267 36.7162 6.97283 36.8073 7.11241C36.984 7.38229 37.8982 8.7718 38.0467 8.90239L38.2142 7.05071L38.9402 7.1199L38.6554 10.232C38.5236 10.247 38.2885 10.2383 38.1564 10.2107C37.9817 10.1739 37.9964 10.1263 37.9018 9.98279L36.6764 8.1967L36.4637 10.008C36.4607 10.0011 36.4518 10.0355 36.4431 10.0505L35.8 9.98998ZM24.3253 6.09551C22.3284 6.09551 20.6354 5.48327 18.891 4.71319C17.6899 4.18272 16.4468 3.67412 15.1472 3.33326C14.4151 3.14156 13.9976 3.06578 13.1874 3.06578C12.3118 3.06578 11.3321 3.33056 10.6836 3.72534C10.0117 4.1345 9.41539 4.60386 8.97208 5.26612C8.41736 6.09491 8.06391 7.16363 8.06391 8.23385C8.06391 9.24595 8.08398 9.75336 8.20529 10.7658C8.25621 11.1923 8.37453 11.7341 8.46049 12.1586C8.91248 14.3868 9.61098 16.8106 7.23182 18.2279C5.89383 19.025 4.07599 19.3371 2.70894 20.1653L2.04908 20.5744C0.964782 21.2927 0 22.4444 0 24.0052C0 25.5196 0.32439 26.6426 0.934829 27.882C1.50543 29.0406 1.85049 29.6034 2.41989 30.6293C3.01056 31.6941 4.3195 33.5569 4.7068 34.7134C5.66229 37.5676 3.64377 40.8681 5.56195 43.4815C5.68146 43.6441 5.77342 43.7388 5.89952 43.9011C6.12896 44.1965 6.40692 44.3831 6.69656 44.6188C9.68227 47.0507 14.1923 45.9796 17.4254 44.9057C22.7606 43.134 28.5954 39.732 34.0376 39.732C34.9598 39.732 35.9533 39.7619 36.8256 39.8844C40.4043 40.3871 43.0516 41.5067 46.4042 42.112C47.0197 42.2235 47.8344 42.366 48.5168 42.361C48.9765 42.3574 49.2341 42.4289 49.643 42.3729C49.8275 42.3475 50.0231 42.3621 50.2115 42.3621C51.4396 42.3612 53.3997 41.87 54.5469 41.3512C54.6999 41.282 54.7991 41.2503 54.9584 41.1838L56.1494 40.5925C56.8652 40.1645 57.5221 39.6131 58.0193 38.943C60.0939 36.1475 60.4889 32.3234 59.4376 28.9897L59.165 28.2376C58.0526 25.4343 56.1575 25.2024 55.0067 22.9063C54.315 21.5269 54.5352 20.3483 55.1849 19.045C55.4925 18.428 55.834 17.885 56.2374 17.3353C56.3033 17.2458 56.306 17.2329 56.3608 17.1469C56.415 17.0619 56.4408 17.0382 56.51 16.9396C58.0526 14.7363 58.5633 13.1665 56.9731 10.7819C55.1825 8.09696 52.6736 9.25524 50.1267 7.33676C49.9332 7.19119 49.8014 7.06628 49.6172 6.91053C49.3773 6.70775 49.111 6.4813 48.9178 6.2291C48.8346 6.12037 48.7732 6.07275 48.6887 5.96821C47.6068 4.62902 47.2953 3.82958 46.4039 2.63925C44.0796 -0.463569 41.0819 -0.467163 37.8056 0.774982L34.394 2.44216C33.6101 2.86599 32.8736 3.33595 32.0771 3.73403L30.1491 4.65747C29.7971 4.80784 29.4814 4.9594 29.1094 5.0879L26.8911 5.76543C26.508 5.86248 26.0749 5.94275 25.6936 5.99367C25.2913 6.04729 24.742 6.09551 24.3253 6.09551Z" fill="#FCBD0F"/>
<path fill-rule="evenodd" clip-rule="evenodd" d="M27.9339 23.0941C27.7677 23.2064 27.6329 23.3502 27.4912 23.4739L26.2997 24.6237C27.7982 26.3733 29.8155 26.8277 30.0348 26.9903C29.962 29.0729 29.2102 31.3191 28.1559 33.004C26.5387 35.5877 23.3242 37.6706 19.7816 37.6706C17.1817 37.6706 15.1596 36.8951 13.3687 35.7192C12.5543 35.1842 11.8285 34.4648 11.2687 33.7651C10.2099 32.4415 10.0463 31.5902 9.79444 31.2155L7.6582 32.153C7.82534 32.9665 8.9935 34.7664 9.40715 35.2699C10.1889 36.2215 10.8497 36.873 11.8992 37.6338C16.0711 40.6569 22.5043 40.7507 26.7586 37.6658L28.0939 36.5944C29.9012 35.0081 31.2713 32.3201 31.8469 29.967C32.7147 26.4206 31.4809 27.5151 33.5905 27.0329C34.7778 26.7612 35.7366 26.3239 36.6529 25.6505C36.5247 25.3459 35.6066 24.2335 35.4721 23.9055C35.2619 23.9801 34.8728 24.2682 34.6122 24.4027C34.3157 24.5555 34.0335 24.669 33.6911 24.7717C32.9447 24.9958 32.1381 25.0449 31.3527 24.9122C29.1802 24.5453 28.1903 23.242 27.9339 23.0941Z" fill="#086CB4"/>
<path fill-rule="evenodd" clip-rule="evenodd" d="M21.7887 17.5437L19.9571 17.4871C19.7848 18.286 19.3053 19.4269 18.9153 20.0203C18.4579 20.7161 17.5267 21.6057 16.6826 20.9102C15.7032 20.1029 15.9035 17.976 16.4382 16.697C16.7033 16.0626 16.8647 15.9143 17.0687 15.4959C16.9645 15.3542 15.6615 14.4278 15.5486 14.3508C15.0529 14.7228 14.2079 16.7515 14.0069 17.5605C12.8313 22.2937 16.8503 24.4051 19.3502 22.5947C20.1464 22.0181 20.2919 21.6054 20.5244 21.3912C20.9671 22.0696 21.2432 22.5839 22.2314 22.9359C23.1533 23.2641 24.1262 23.2318 24.9331 22.787C27.6124 21.3103 26.9529 17.1978 30.4088 15.1646C31.5917 14.4685 33.1774 14.4059 34.5666 14.6587C35.0293 14.7429 35.4789 14.8938 35.9103 14.9648L36.3793 12.9205C34.3689 12.467 32.7167 11.9411 30.4762 12.6932C26.0962 14.163 25.6517 18.8862 24.5057 20.3545C23.9171 21.1087 22.9095 21.3073 22.285 20.3878C21.7315 19.5734 21.7503 18.6382 21.7887 17.5437Z" fill="#086CB4"/>
<path fill-rule="evenodd" clip-rule="evenodd" d="M44.0431 13.9585C42.8051 13.9965 41.9407 13.9599 40.6464 13.7829C39.8458 13.6736 39.0868 13.487 38.3233 13.3684L37.8545 15.3599C38.5323 15.7562 42.5568 16.0543 43.606 16.042C43.5348 17.1056 43.3197 17.6439 43.3197 19.1047V19.5947C43.3197 22.4049 44.2333 25.8761 47.0467 25.8761C50.284 25.8761 51.4819 22.7083 50.8478 20.531L48.8682 21.0962L48.9116 21.6435C48.9628 22.3315 48.5659 23.1522 48.2281 23.4035C47.6161 23.8594 46.9365 23.7839 46.4534 23.3064C45.5982 22.4615 45.3957 20.6999 45.3957 19.2382C45.3957 18.4454 45.5305 16.644 45.7411 15.9452L45.9424 15.8593C46.6436 15.7149 46.7775 15.7475 47.6629 15.489C48.1029 15.3605 49.0997 15.0194 49.3681 14.7831L48.7669 13.2426C48.7136 13.1114 48.728 13.1234 48.6507 13.0257C47.7782 13.2522 47.4556 13.4963 46.2482 13.7024C46.3156 13.0296 46.917 11.9124 47.1318 11.2633C46.9712 11.1243 45.5128 10.5654 45.2262 10.4758C44.9366 11.0572 44.5088 12.329 44.3105 13.0263C44.2336 13.2977 44.1467 13.7236 44.0431 13.9585Z" fill="#086CB4"/>
<path fill-rule="evenodd" clip-rule="evenodd" d="M40.1333 26.4341L42.0781 35.5503L42.2911 35.6225C42.6122 35.6824 43.828 35.8696 43.9891 35.8304C44.1548 34.8665 44.4783 33.84 44.8706 33.0561C45.2921 32.2138 45.7818 31.3788 46.3108 30.7977C47.5991 29.3824 48.9122 28.4613 51.0032 28.1435C50.9583 27.8335 50.645 26.5219 50.5222 26.3053C48.7684 26.3892 46.7792 27.8171 45.7147 28.6881C44.9159 29.3417 44.079 30.4263 43.5962 31.3809C43.5027 31.5654 43.4557 31.7565 43.3568 31.9263L42.1126 26.0226L40.1333 26.4341Z" fill="#086CB4"/>
<path fill-rule="evenodd" clip-rule="evenodd" d="M37.7505 32.3759C37.543 33.1882 35.4798 34.4246 34.8277 33.5955C34.3485 32.9866 35.2941 32.4621 35.7191 32.3255C36.5797 32.0494 36.9816 32.1833 37.7505 32.3759ZM33.4328 29.5187C33.5814 29.6615 34.6277 30.5029 34.763 30.5514C35.8371 29.1505 37.3953 29.3953 37.7323 30.8659C36.4392 30.7527 35.5996 30.6961 34.5486 31.2892C32.3995 32.5023 32.8505 35.2459 35.1938 35.4257C37.0293 35.5661 37.8784 34.5729 38.0893 34.4768L38.0788 35.1875L39.823 35.2298C39.9904 32.7644 39.8694 28.9558 37.4552 28.1603C36.9286 27.9869 36.3068 27.9425 35.7365 28.0638C34.6789 28.2888 33.8755 28.9424 33.4328 29.5187Z" fill="#086CB4"/>
<path fill-rule="evenodd" clip-rule="evenodd" d="M50.5088 35.1879C50.2661 35.4817 49.5712 35.7926 49.0806 35.8792C48.4911 35.9831 47.6351 35.8393 47.6105 35.2762C47.5623 34.1781 50.0813 34.4968 50.5088 35.1879ZM47.4793 31.3506C47.5326 31.5417 48.2006 32.5044 48.3387 32.6425C48.859 32.3992 49.5233 32.0419 50.2314 32.3588C50.7595 32.5951 51.0222 33.1499 51.0827 33.8852C50.6522 33.8211 49.7734 33.0597 48.2198 33.288C45.3083 33.7151 45.4141 37.3217 48.7838 37.3843C49.4703 37.3972 49.7192 37.2456 50.2524 37.0704L49.9046 37.8135C50.0595 37.91 51.2486 38.2182 51.4571 38.2218C52.2523 36.9455 53.0533 34.12 52.3838 32.4355C51.8036 30.9756 50.2455 30.5035 48.788 30.8258C48.1889 30.9582 47.9286 31.1742 47.4793 31.3506Z" fill="#086CB4"/>
<path fill-rule="evenodd" clip-rule="evenodd" d="M38.04 22.2719L36.8599 23.2923C37.302 24.2194 38.7241 25.1584 40.0951 24.9895C41.5062 24.8154 42.6168 23.8908 42.5506 22.3551C42.4802 20.7203 41.1949 20.4615 39.7994 20.0272C39.2145 19.8451 38.3578 19.4521 38.8592 18.7143C39.0072 18.4969 39.3642 18.3327 39.738 18.4382C40.1667 18.5589 40.1939 18.7584 40.453 18.9977L41.8225 18.0383C41.4855 17.2787 39.7464 16.4823 38.3443 17.1298C37.8279 17.3683 37.3469 17.8235 37.1387 18.3741C36.87 19.0858 37.0381 19.8792 37.42 20.3555C38.2518 21.393 40.0406 21.3253 40.624 22.0499C40.9499 22.4546 40.6726 23.3948 39.5613 23.254C39.2306 23.2121 38.8889 23.044 38.6804 22.8817C38.4758 22.7223 38.1562 22.3374 38.04 22.2719Z" fill="#086CB4"/>
<path fill-rule="evenodd" clip-rule="evenodd" d="M31.6365 18.5759C31.975 17.6836 33.6185 17.5608 33.9192 18.4669C34.1304 19.1037 33.3711 19.2373 32.8415 19.1397C32.2826 19.0369 32.0065 18.7913 31.6365 18.5759ZM34.9116 22.6241L34.137 21.2933C33.7267 21.4029 32.876 22.0112 31.9298 21.5248C31.3583 21.231 30.9443 20.5942 31.0396 19.7118C31.1684 19.6869 31.4338 19.8831 31.5808 19.9568C33.2962 20.8173 35.6445 20.5408 35.4735 18.5235C35.3162 16.67 32.9083 15.7005 31.0956 16.9201C28.5786 18.614 29.0486 22.6483 32.0756 23.2043C32.613 23.3031 33.1656 23.2926 33.6853 23.1632C34.0214 23.0797 34.728 22.8397 34.9116 22.6241Z" fill="#086CB4"/>
<path fill-rule="evenodd" clip-rule="evenodd" d="M16.4763 26.4354C15.7304 26.6331 15.2593 27.5164 15.4106 28.4713C15.5361 29.2647 16.1797 30.1585 17.143 29.924C18.9477 29.4843 18.3447 25.9399 16.4763 26.4354Z" fill="#086CB4"/>
<path fill-rule="evenodd" clip-rule="evenodd" d="M21.5259 25.4606C19.6123 25.7676 20.2287 29.238 22.0846 28.9822C22.9035 28.8693 23.3863 27.8925 23.1904 26.9196C23.0419 26.1828 22.3949 25.321 21.5259 25.4606Z" fill="#086CB4"/>
<path fill-rule="evenodd" clip-rule="evenodd" d="M24.1402 8.44349C24.0983 8.79214 24.0072 9.17704 23.9404 9.54336C23.9063 9.73116 23.8706 9.92256 23.8374 10.1053L23.7014 10.6402L22.6093 9.7713C22.5243 9.70211 22.4392 9.63472 22.3377 9.55324C22.1822 9.42894 21.8923 9.05902 21.4028 9.48136C21.4801 9.771 22.4086 12.3098 22.4985 12.4027C22.6653 12.3526 22.9873 12.2679 23.1063 12.1544L22.5054 10.4944C22.5806 10.5603 23.1209 10.9655 23.2641 11.0769C23.4603 11.2294 23.8793 11.697 24.1471 11.4439C24.3163 11.1264 24.3586 10.1436 24.5173 9.72008L25.1541 11.416L25.7951 11.1944C25.7116 10.8736 24.7785 8.35483 24.6818 8.25299L24.1402 8.44349Z" fill="#FFFEFD"/>
<path fill-rule="evenodd" clip-rule="evenodd" d="M35.7996 9.98996L36.4427 10.0505C36.4514 10.0355 36.4604 10.001 36.4634 10.0079L36.6761 8.19668L37.9014 9.98277C37.9961 10.1262 37.9814 10.1739 38.156 10.2107C38.2881 10.2383 38.5233 10.247 38.655 10.232L38.9399 7.11988L38.2138 7.05069L38.0464 8.90237C37.8978 8.77178 36.9837 7.38226 36.807 7.11239C36.7159 6.97281 36.7174 6.92668 36.535 6.89343C36.431 6.87426 36.169 6.86168 36.0635 6.87127C36.0063 7.34842 35.7463 9.68235 35.7996 9.98996Z" fill="#FFFEFD"/>
<path fill-rule="evenodd" clip-rule="evenodd" d="M42.8403 9.86124L42.2368 9.67823C42.072 9.91006 42.0286 10.2566 41.9133 10.5376C40.1709 10.7311 40.3419 8.30848 41.789 8.53882C42.4114 8.63767 42.5153 9.03694 42.6804 9.17113L43.2222 8.94019C43.0787 8.34023 42.1966 7.80228 41.3457 7.88375C39.6494 8.0458 39.2759 10.5451 41.1995 11.0944C41.5098 11.1831 42.2658 11.3059 42.4545 11.0372C42.4917 10.9842 42.8149 9.98824 42.8403 9.86124Z" fill="#FFFEFD"/>
<path fill-rule="evenodd" clip-rule="evenodd" d="M18.9524 13.6248C18.9736 13.8072 18.9925 14.0288 19.0677 14.1678C19.7964 14.2175 21.174 13.4783 21.0098 12.5312C20.9709 12.3059 20.8277 12.1007 20.6675 11.9809C20.0708 11.5349 18.8391 12.5285 18.5953 12.0993C18.5139 11.7548 18.7616 11.5796 18.9566 11.464C19.1926 11.3238 19.2911 11.3028 19.5412 11.2444C19.5784 11.2357 19.6122 11.2291 19.6503 11.2168L19.7551 11.1743L19.6476 10.6235C18.9554 10.6684 18.4246 11.0518 18.1128 11.4223C17.718 11.8914 17.8621 12.7399 18.462 12.8882C19.0773 13.0407 20.0861 12.2907 20.2993 12.6699C20.4686 12.9706 20.0385 13.2479 19.8602 13.348C19.4879 13.5571 19.2989 13.5178 19.0311 13.596C19.018 13.5999 19.0024 13.6065 18.9916 13.6098C18.9811 13.6134 18.9649 13.6182 18.9524 13.6248Z" fill="#FFFEFD"/>
<path fill-rule="evenodd" clip-rule="evenodd" d="M37.7513 32.3758C36.9824 32.1832 36.5805 32.0493 35.7199 32.3255C35.2949 32.4621 34.3493 32.9866 34.8285 33.5955C35.4806 34.4246 37.5438 33.1881 37.7513 32.3758Z" fill="#FCBD0F"/>
<path fill-rule="evenodd" clip-rule="evenodd" d="M29.1859 7.26845C29.1658 7.47482 29.5151 10.2104 29.5828 10.3782L31.8496 10.1047L31.7864 9.54486C31.5003 9.47118 30.5898 9.68954 30.2148 9.69882L29.8931 7.19147L29.1859 7.26845Z" fill="#FFFEFD"/>
<path fill-rule="evenodd" clip-rule="evenodd" d="M50.5093 35.1879C50.0818 34.4969 47.5628 34.1782 47.611 35.2762C47.6356 35.8394 48.4916 35.9831 49.0811 35.8792C49.5718 35.7926 50.2667 35.4817 50.5093 35.1879Z" fill="#FCBD0F"/>
<path fill-rule="evenodd" clip-rule="evenodd" d="M33.4968 10.0382L34.2273 10.0229L34.124 6.88147L33.3979 6.89615L33.4968 10.0382Z" fill="#FFFEFD"/>
<path fill-rule="evenodd" clip-rule="evenodd" d="M26.6294 7.77533L27.3096 10.8506L28.0114 10.6972L27.3456 7.64264L26.6294 7.77533Z" fill="#FFFEFD"/>
<path fill-rule="evenodd" clip-rule="evenodd" d="M31.6372 18.576C32.0071 18.7914 32.2833 19.037 32.8422 19.1397C33.3718 19.2374 34.1311 19.1038 33.9199 18.467C33.6192 17.5609 31.9757 17.6837 31.6372 18.576Z" fill="#FCBD0F"/>
</svg>
