<?xml version="1.0" encoding="utf-8"?>
<!DOCTYPE svg PUBLIC "-//W3C//DTD SVG 20010904//EN" "http://www.w3.org/TR/2001/REC-SVG-20010904/DTD/svg10.dtd">
<svg version="1.0" xmlns="http://www.w3.org/2000/svg" width="602pt" height="358pt" viewBox="0 0 602 358" style="" preserveAspectRatio="xMidYMid meet">
<g fill="#FFFFFFFF" stroke="#FFFFFFFF">
<path d="M 514.000 90.640 C 488.649 92.818 466.646 107.386 455.764 129.198 C 451.798 137.147 448.060 149.399 447.898 154.980 L 447.796 158.500 446.966 155.500 C 446.509 153.850 445.425 149.350 444.558 145.500 C 443.690 141.650 441.184 134.742 438.988 130.149 L 434.995 121.797 431.558 124.815 C 429.667 126.475 427.419 128.226 426.563 128.705 C 425.220 129.457 425.481 130.472 428.471 136.102 C 433.071 144.764 434.967 153.350 434.985 165.590 C 435.020 189.021 424.798 209.269 407.896 219.250 C 400.567 223.578 402.283 224.093 412.276 220.566 C 429.923 214.339 441.445 201.302 445.740 182.702 L 447.404 175.500 448.094 180.000 C 450.603 196.365 460.239 209.979 474.414 217.187 C 484.546 222.339 496.403 225.207 488.214 220.526 C 473.301 212.000 463.502 197.053 460.051 177.566 C 458.798 170.491 458.828 166.916 460.096 172.302 C 462.998 184.636 472.073 195.950 483.654 201.673 C 493.111 206.348 504.064 207.350 513.591 204.413 C 520.229 202.367 519.989 202.242 511.680 203.422 C 504.500 204.441 496.747 203.013 489.095 199.262 L 483.500 196.518 491.679 198.834 C 506.229 202.952 518.633 201.458 517.811 195.687 C 517.438 193.065 513.000 191.906 513.000 194.430 C 513.000 195.294 513.788 196.015 514.750 196.033 C 516.218 196.061 516.120 196.383 514.139 198.033 C 511.332 200.372 507.902 200.472 498.500 198.489 C 488.508 196.382 479.896 191.861 475.117 186.213 L 471.128 181.500 474.814 184.399 C 478.856 187.579 489.652 192.998 491.946 192.999 C 492.741 193.000 491.391 191.707 488.946 190.127 C 482.768 186.134 477.634 180.475 474.317 174.000 C 471.828 169.141 471.505 167.451 471.543 159.500 C 471.599 147.855 474.197 140.898 481.048 134.048 C 489.146 125.949 503.493 122.007 512.436 125.422 C 516.712 127.055 518.792 129.767 521.318 137.000 C 521.606 137.825 521.878 136.693 521.921 134.484 C 522.024 129.241 519.193 124.109 514.938 121.827 C 510.543 119.470 501.588 119.437 493.569 121.750 L 487.500 123.500 494.000 120.251 C 499.764 117.370 501.439 117.001 508.790 117.001 C 518.209 117.000 522.973 118.803 527.374 124.033 C 530.412 127.643 530.842 132.861 528.476 137.399 C 526.313 141.547 527.250 141.618 530.799 137.576 C 537.382 130.078 535.372 118.647 526.564 113.484 C 519.546 109.372 512.660 108.487 502.868 110.440 C 494.470 112.114 483.212 116.645 479.594 119.807 C 478.519 120.746 478.009 120.899 478.449 120.150 C 480.087 117.360 491.634 110.885 499.422 108.390 C 511.219 104.611 526.268 103.975 535.754 106.857 C 544.601 109.544 551.586 114.286 555.750 120.430 C 560.420 127.322 560.119 132.853 554.928 135.537 C 550.965 137.587 548.692 137.365 546.174 134.686 C 543.723 132.076 543.405 130.835 545.250 131.075 C 548.123 131.448 549.000 130.871 549.000 128.607 C 549.000 124.564 544.048 124.173 541.972 128.052 C 540.049 131.646 540.859 136.013 544.040 139.194 C 546.873 142.026 547.482 142.206 552.943 141.811 C 563.824 141.023 568.728 134.657 567.758 122.576 C 566.663 108.934 556.669 97.795 541.214 92.992 C 535.261 91.142 521.750 89.974 514.000 90.640 "/></g>
<g fill="#FFFFFFFF" stroke="#FFFFFFFF">
<path d="M 425.994 73.934 C 422.067 75.129 417.490 77.704 415.927 79.598 C 414.619 81.183 414.682 81.231 416.684 80.164 C 417.886 79.524 420.361 79.018 422.184 79.040 L 425.500 79.080 422.500 80.685 C 417.302 83.467 417.551 84.533 423.312 84.172 C 430.349 83.732 432.556 85.930 431.657 92.485 C 430.347 102.045 422.673 111.712 414.600 113.972 C 410.618 115.087 409.101 114.938 399.831 112.517 C 394.149 111.033 386.502 109.427 382.837 108.948 C 369.722 107.233 356.297 111.628 351.037 119.359 L 348.219 123.500 352.359 119.874 C 356.657 116.110 362.846 112.512 363.646 113.312 C 363.898 113.565 362.452 114.794 360.431 116.042 C 351.887 121.323 348.509 132.795 353.094 140.954 C 356.310 146.675 360.679 148.616 369.295 148.151 C 377.178 147.726 380.189 135.000 372.407 135.000 C 369.944 135.000 368.387 137.787 369.967 139.367 C 371.555 140.955 371.200 142.000 369.073 142.000 C 366.477 142.000 363.000 137.385 363.000 133.942 C 363.000 130.460 367.331 125.178 371.671 123.364 C 376.547 121.327 381.859 121.698 390.622 124.688 C 400.857 128.180 418.148 128.669 424.244 125.639 C 429.635 122.959 435.523 116.875 438.598 110.807 C 446.967 94.292 447.122 82.487 439.059 75.703 C 435.740 72.911 431.325 72.313 425.994 73.934 M 390.434 120.029 C 395.635 121.696 402.953 123.705 406.696 124.495 L 413.500 125.931 407.000 125.458 C 403.425 125.198 395.829 123.639 390.121 121.993 C 384.412 120.347 378.787 119.020 377.621 119.044 C 374.286 119.113 368.239 121.555 365.008 124.139 L 362.054 126.500 364.777 123.208 C 367.590 119.807 373.457 117.121 378.238 117.044 C 379.744 117.020 385.232 118.363 390.434 120.029 "/></g>
<g fill="#FFFFFFFF" stroke="#FFFFFFFF">
<path d="M 445.566 188.470 C 443.529 195.419 440.797 201.134 437.247 205.865 C 434.867 209.038 434.759 209.706 435.363 217.560 C 437.549 246.001 450.279 266.348 470.657 273.973 C 477.630 276.582 491.651 278.144 500.500 277.298 L 507.500 276.629 501.500 275.395 C 481.401 271.260 467.143 260.578 459.043 243.585 C 455.077 235.264 451.981 224.608 452.026 219.436 C 452.048 216.903 452.470 217.364 455.106 222.799 C 459.459 231.775 468.353 240.898 477.248 245.510 L 484.500 249.271 476.573 241.277 C 467.563 232.191 462.105 223.837 459.629 215.344 C 458.692 212.130 457.184 208.150 456.278 206.500 C 451.977 198.666 449.873 193.652 448.648 188.312 L 447.315 182.500 445.566 188.470 "/></g>
<g fill="#FFFFFFFF" stroke="#FFFFFFFF">
<path d="M 121.000 142.375 C 121.000 143.131 122.357 144.021 124.017 144.353 C 126.033 144.757 127.359 145.814 128.017 147.543 C 129.038 150.231 129.409 164.000 128.460 164.000 C 128.162 164.000 126.685 163.088 125.176 161.972 C 119.298 157.626 110.111 158.207 104.322 163.291 C 93.866 172.471 94.756 190.099 105.962 195.750 C 110.827 198.203 118.625 198.755 122.316 196.906 C 123.517 196.304 125.510 194.616 126.745 193.156 C 128.931 190.570 128.990 190.559 128.995 192.715 C 129.002 195.781 131.828 197.000 138.934 197.000 C 144.333 197.000 145.000 196.780 145.000 195.000 C 145.000 193.489 144.328 192.996 142.250 192.985 C 136.510 192.953 136.542 193.083 136.000 167.455 C 135.536 145.546 135.359 143.732 133.559 142.417 C 130.953 140.514 121.000 140.481 121.000 142.375 M 122.989 164.494 C 127.784 166.974 129.000 169.660 129.000 177.772 C 129.000 189.108 125.471 194.000 117.293 194.000 C 114.009 194.000 112.291 193.339 109.805 191.117 C 106.855 188.482 106.545 187.632 106.182 181.208 C 105.679 172.320 107.229 167.441 111.353 164.926 C 115.135 162.621 119.082 162.474 122.989 164.494 "/></g>
<g fill="#FFFFFFFF" stroke="#FFFFFFFF">
<path d="M 362.500 91.009 C 340.504 94.027 321.850 110.563 312.540 135.297 C 309.162 144.273 309.138 149.650 312.470 151.168 C 314.373 152.035 315.303 151.993 316.519 150.985 C 319.022 148.907 317.974 145.554 314.705 145.179 C 311.345 144.794 311.485 143.916 316.597 133.295 C 323.890 118.143 338.288 106.730 357.000 101.271 C 357.825 101.030 355.586 102.333 352.025 104.167 C 339.172 110.783 328.674 123.528 326.628 135.000 C 326.065 138.154 326.343 137.903 329.442 132.458 C 339.574 114.657 355.417 104.977 374.355 105.017 C 382.554 105.034 392.898 107.175 400.500 110.427 C 406.324 112.919 414.313 112.903 417.674 110.394 C 419.159 109.286 420.514 107.956 420.685 107.439 C 421.055 106.321 413.505 101.098 406.495 97.622 C 395.609 92.225 375.580 89.214 362.500 91.009 "/></g>
<g fill="#FFFFFFFF" stroke="#FFFFFFFF">
<path d="M 155.900 160.934 C 147.798 165.344 144.210 172.301 145.255 181.573 C 146.684 194.249 160.768 201.680 172.552 195.975 C 185.648 189.635 186.878 170.732 174.743 162.322 C 169.541 158.717 161.114 158.096 155.900 160.934 M 167.393 164.516 C 178.060 169.578 176.623 191.448 165.484 193.579 C 159.647 194.696 154.000 187.553 154.000 179.052 C 154.000 173.237 156.770 167.111 160.401 164.897 C 164.119 162.630 163.491 162.664 167.393 164.516 "/></g>
<g fill="#FFFFFFFF" stroke="#FFFFFFFF">
<path d="M 459.271 63.802 C 455.675 67.651 454.755 67.704 439.500 64.946 C 429.947 63.220 426.190 64.124 420.073 69.624 C 417.283 72.133 415.000 74.517 415.000 74.922 C 415.000 75.327 417.674 74.334 420.942 72.714 C 425.205 70.601 428.342 69.769 432.048 69.769 C 438.537 69.769 441.507 71.832 445.451 79.078 C 447.903 83.583 448.472 85.946 448.814 93.049 C 449.324 103.648 447.926 110.624 443.398 120.072 C 441.070 124.931 440.083 128.193 440.472 129.743 C 441.309 133.078 442.824 131.672 445.998 124.614 C 449.027 117.880 451.431 108.717 452.588 99.500 L 453.341 93.500 454.205 98.500 C 456.110 109.523 452.662 126.717 446.823 135.310 C 444.459 138.789 444.384 139.286 445.552 143.753 C 446.892 148.876 446.946 148.807 449.493 138.794 C 451.579 130.591 455.717 121.670 460.922 114.156 L 464.840 108.500 463.968 99.416 C 462.954 88.855 460.075 80.362 456.045 76.048 C 453.706 73.544 453.513 73.000 454.962 73.000 C 457.436 73.000 461.967 68.197 462.167 65.364 C 462.258 64.064 462.371 62.403 462.417 61.673 C 462.463 60.943 461.047 61.901 459.271 63.802 "/></g>
<g fill="#FFFFFFFF" stroke="#FFFFFFFF">
<path d="M 340.000 161.394 C 340.000 162.626 341.028 163.000 344.418 163.000 C 346.848 163.000 349.565 163.280 350.455 163.621 C 352.505 164.408 355.000 169.167 355.000 172.290 C 355.000 174.460 354.364 174.793 348.094 175.914 C 337.724 177.767 332.113 182.618 332.035 189.795 C 331.979 195.049 335.662 198.008 342.205 197.965 C 348.196 197.924 351.671 196.378 353.604 192.890 C 354.578 191.133 354.939 190.945 354.965 192.179 C 355.030 195.289 357.908 197.000 363.071 197.000 C 367.112 197.000 368.000 196.683 368.000 195.237 C 368.000 194.268 366.988 193.030 365.750 192.487 C 363.777 191.622 363.463 190.648 363.201 184.590 C 362.884 177.291 363.526 176.045 367.615 176.015 C 370.165 175.997 375.000 172.389 375.000 170.504 C 375.000 169.381 374.537 169.373 372.250 170.458 C 370.738 171.175 368.051 172.027 366.280 172.350 C 363.236 172.906 363.005 172.732 362.041 169.154 C 361.481 167.073 359.858 164.276 358.435 162.939 C 356.237 160.874 354.655 160.454 347.924 160.148 C 341.165 159.841 340.000 160.024 340.000 161.394 M 355.000 182.911 C 355.000 187.167 354.590 188.167 351.923 190.411 C 347.902 193.795 343.593 193.834 341.413 190.507 C 338.299 185.754 341.422 181.542 349.994 178.934 C 354.692 177.505 355.000 177.750 355.000 182.911 "/></g>
<g fill="#FFFFFFFF" stroke="#FFFFFFFF">
<path d="M 183.000 161.389 C 183.000 162.183 184.493 163.057 186.488 163.432 C 188.406 163.792 190.431 164.937 190.988 165.977 C 191.545 167.017 192.000 174.423 192.000 182.434 L 192.000 197.000 196.000 197.000 L 200.000 197.000 200.000 184.000 C 200.000 172.249 200.196 170.804 202.040 168.960 C 206.793 164.207 214.337 164.071 217.957 168.672 C 219.706 170.896 220.002 172.726 220.015 181.385 C 220.024 187.507 220.527 192.487 221.291 194.000 C 222.436 196.271 223.214 196.527 229.776 196.794 C 236.481 197.067 237.000 196.941 237.000 195.044 C 237.000 193.451 236.354 193.000 234.071 193.000 C 229.013 193.000 228.000 190.946 227.998 180.679 C 227.997 169.986 226.428 165.839 221.000 162.181 C 218.080 160.214 216.547 159.890 211.747 160.226 C 207.885 160.496 205.024 161.346 203.041 162.812 L 200.087 164.996 197.589 162.498 C 195.476 160.385 194.159 160.000 189.045 160.000 C 184.554 160.000 183.000 160.357 183.000 161.389 "/></g>
<g fill="#FFFFFFFF" stroke="#FFFFFFFF">
<path d="M 43.000 161.500 C 43.000 162.325 43.800 163.000 44.777 163.000 C 45.755 163.000 47.555 163.701 48.777 164.557 C 50.911 166.051 51.000 166.732 51.000 181.557 L 51.000 197.000 55.000 197.000 L 59.000 197.000 59.000 184.187 C 59.000 171.412 59.008 171.366 61.844 168.650 C 67.809 162.934 76.960 164.594 78.948 171.752 C 79.520 173.813 79.991 179.630 79.994 184.679 C 80.001 196.174 80.643 197.000 89.571 197.000 C 95.333 197.000 96.000 196.793 96.000 195.000 C 96.000 193.463 95.333 193.000 93.122 193.000 C 88.660 193.000 87.746 190.926 87.044 179.208 C 86.325 167.201 85.047 164.199 79.540 161.586 C 74.760 159.318 69.089 159.620 63.517 162.441 L 58.695 164.882 56.775 162.441 C 55.125 160.343 54.021 160.000 48.927 160.000 C 44.325 160.000 43.000 160.335 43.000 161.500 "/></g>
<g fill="#FFFFFFFF" stroke="#FFFFFFFF">
<path d="M 247.415 160.421 C 240.880 163.267 237.466 170.757 238.250 180.530 C 239.164 191.915 244.318 196.932 255.954 197.765 C 263.082 198.275 270.000 196.736 270.000 194.640 C 270.000 193.780 268.050 193.545 263.198 193.819 C 256.968 194.171 256.123 193.974 253.162 191.483 C 249.077 188.046 247.000 184.059 247.000 179.657 C 247.000 175.339 247.864 175.000 258.882 175.000 C 264.329 175.000 268.050 174.550 268.800 173.800 C 272.110 170.490 268.488 162.937 262.364 160.379 C 258.222 158.648 251.444 158.667 247.415 160.421 M 259.612 164.521 C 261.153 166.062 262.010 167.910 261.817 169.271 C 261.527 171.308 260.880 171.525 254.308 171.793 L 247.115 172.085 248.044 168.793 C 249.098 165.053 252.295 162.000 255.156 162.000 C 256.220 162.000 258.225 163.135 259.612 164.521 "/></g>
<g fill="#FFFFFFFF" stroke="#FFFFFFFF">
<path d="M 144.000 96.000 C 144.000 96.550 145.077 97.000 146.393 97.000 C 149.282 97.000 150.000 98.613 150.000 105.107 L 150.000 110.051 147.050 108.526 C 136.170 102.899 124.787 114.953 130.517 126.033 C 133.614 132.021 143.064 134.026 147.462 129.628 C 149.675 127.416 149.867 127.382 150.323 129.128 C 150.712 130.615 151.759 131.000 155.406 131.000 C 158.823 131.000 160.000 130.616 160.000 129.500 C 160.000 128.567 159.056 128.000 157.500 128.000 L 155.000 128.000 155.000 113.434 C 155.000 105.306 154.542 98.014 153.965 96.934 C 153.179 95.465 151.856 95.000 148.465 95.000 C 146.009 95.000 144.000 95.450 144.000 96.000 M 147.961 112.189 C 149.410 113.744 150.000 115.730 150.000 119.054 C 150.000 125.302 147.185 129.000 142.427 129.000 C 137.260 129.000 135.000 126.167 135.000 119.689 C 135.000 113.087 137.390 110.000 142.500 110.000 C 144.733 110.000 146.631 110.761 147.961 112.189 "/></g>
<g fill="#FFFFFFFF" stroke="#FFFFFFFF">
<path d="M 72.190 109.026 C 65.586 113.052 64.518 122.131 69.962 127.959 C 75.115 133.476 82.816 133.251 87.924 127.434 C 97.295 116.761 84.348 101.613 72.190 109.026 M 84.353 114.293 C 87.573 120.884 84.355 129.000 78.523 129.000 C 73.193 129.000 70.485 118.487 74.312 112.647 C 75.766 110.427 76.751 109.943 79.312 110.191 C 81.876 110.440 82.863 111.242 84.353 114.293 "/></g>
<g fill="#FFFFFFFF" stroke="#FFFFFFFF">
<path d="M 430.641 168.423 C 421.774 183.325 403.566 193.984 382.500 196.604 L 376.500 197.351 381.000 198.748 C 386.977 200.604 400.611 199.755 408.500 197.034 C 411.800 195.896 418.096 193.005 422.492 190.609 C 429.873 186.585 430.583 185.918 431.781 181.876 C 432.494 179.469 433.172 174.377 433.289 170.559 L 433.500 163.618 430.641 168.423 "/></g>
<g fill="#FFFFFFFF" stroke="#FFFFFFFF">
<path d="M 281.763 160.565 C 277.970 162.623 275.667 167.411 276.453 171.602 C 277.117 175.143 279.744 177.573 288.090 182.366 C 293.330 185.376 295.572 189.063 293.976 192.045 C 292.603 194.610 289.013 195.401 283.237 194.411 C 276.871 193.320 276.725 193.325 276.271 194.686 C 275.745 196.265 282.200 197.987 288.673 197.994 C 297.366 198.004 302.507 191.622 299.879 184.083 C 299.148 181.986 296.645 179.633 291.664 176.359 C 281.458 169.652 279.960 167.040 284.000 163.000 C 287.108 159.892 291.729 160.361 293.797 163.994 C 296.004 167.873 298.000 167.864 298.000 163.975 C 298.000 161.649 297.408 160.725 295.435 159.975 C 291.708 158.558 284.922 158.851 281.763 160.565 "/></g>
<g fill="#FFFFFFFF" stroke="#FFFFFFFF">
<path d="M 304.000 161.500 C 304.000 162.384 304.923 163.006 306.250 163.015 C 311.139 163.049 311.468 163.994 312.000 179.543 C 312.585 196.661 312.783 197.000 322.191 197.000 C 327.333 197.000 328.000 196.770 328.000 195.000 C 328.000 193.450 327.333 193.000 325.035 193.000 C 320.775 193.000 320.000 190.711 320.000 178.131 C 320.000 167.319 319.038 162.280 316.687 160.786 C 316.034 160.370 312.913 160.024 309.750 160.015 C 305.299 160.003 304.000 160.339 304.000 161.500 "/></g>
<g fill="#FFFFFFFF" stroke="#FFFFFFFF">
<path d="M 22.000 107.930 C 22.000 108.442 22.923 109.005 24.052 109.180 C 25.587 109.420 27.410 112.333 31.291 120.750 C 34.144 126.938 36.708 131.995 36.989 131.990 C 37.270 131.984 39.155 128.047 41.177 123.240 L 44.854 114.500 48.918 123.250 C 51.154 128.063 53.169 132.000 53.397 132.000 C 53.790 132.000 64.000 108.348 64.000 107.436 C 64.000 107.196 62.425 107.000 60.500 107.000 C 58.575 107.000 57.000 107.450 57.000 108.000 C 57.000 108.550 57.675 109.000 58.500 109.000 C 60.489 109.000 60.442 109.323 57.279 117.386 L 54.557 124.323 50.626 115.661 C 48.463 110.898 46.346 107.000 45.921 107.000 C 45.496 107.000 43.676 110.600 41.877 115.000 C 40.078 119.400 38.343 123.000 38.022 123.000 C 37.700 123.000 35.802 119.400 33.803 115.000 L 30.169 107.000 26.084 107.000 C 23.838 107.000 22.000 107.419 22.000 107.930 "/></g>
<g fill="#FFFFFFFF" stroke="#FFFFFFFF">
<path d="M 22.000 161.500 C 22.000 162.333 22.889 163.000 24.000 163.000 C 25.100 163.000 26.900 163.900 28.000 165.000 C 29.791 166.791 30.000 168.333 30.000 179.777 C 30.000 196.141 30.477 197.000 39.557 197.000 C 45.263 197.000 46.000 196.779 46.000 195.063 C 46.000 193.613 45.190 193.048 42.773 192.813 C 37.949 192.345 37.032 189.556 37.015 175.307 C 37.001 163.849 36.866 163.020 34.777 161.557 C 31.755 159.440 22.000 159.397 22.000 161.500 "/></g>
<g fill="#FFFFFFFF" stroke="#FFFFFFFF">
<path d="M 420.312 156.067 C 410.382 161.213 401.804 163.670 397.519 162.594 C 395.258 162.027 395.024 161.676 396.069 160.416 C 397.643 158.520 396.031 156.667 393.614 157.594 C 390.984 158.604 392.069 162.275 395.478 163.905 C 399.532 165.842 408.506 164.263 418.558 159.844 L 426.165 156.500 421.500 159.855 C 415.860 163.911 407.673 166.912 399.536 167.905 L 393.500 168.641 399.015 169.407 C 408.043 170.659 425.242 167.362 431.879 163.107 C 433.629 161.984 432.517 150.914 430.678 151.153 C 430.030 151.237 425.365 153.448 420.312 156.067 "/></g>
<g fill="#FFFFFFFF" stroke="#FFFFFFFF">
<path d="M 93.000 107.930 C 93.000 108.442 94.013 109.005 95.250 109.180 C 97.403 109.486 97.512 109.962 97.784 120.250 C 98.066 130.934 98.083 131.000 100.534 131.000 C 102.951 131.000 103.000 130.840 103.000 122.955 C 103.000 115.746 103.255 114.654 105.455 112.455 C 108.428 109.482 112.297 109.297 115.000 112.000 C 116.635 113.635 117.000 115.333 117.000 121.300 C 117.000 125.644 117.486 129.086 118.200 129.800 C 119.967 131.567 128.000 131.376 128.000 129.566 C 128.000 128.746 126.824 127.998 125.250 127.816 C 122.560 127.507 122.489 127.328 122.000 119.661 C 121.551 112.616 121.216 111.577 118.694 109.411 C 115.375 106.559 109.608 106.186 106.161 108.600 C 104.068 110.066 103.730 110.066 102.110 108.600 C 100.229 106.897 93.000 106.366 93.000 107.930 "/></g>
<g fill="#FFFFFFFF" stroke="#FFFFFFFF">
<path d="M 166.856 108.516 C 159.695 112.407 160.763 127.332 168.432 130.536 C 173.015 132.451 179.123 132.401 181.559 130.428 C 183.398 128.939 183.327 128.886 180.188 129.416 C 173.601 130.528 167.357 125.587 168.161 119.899 C 168.475 117.675 168.988 117.479 175.197 117.206 C 180.738 116.962 181.997 116.584 182.494 115.018 C 184.379 109.080 173.865 104.709 166.856 108.516 M 176.402 111.163 C 178.493 114.148 177.614 115.000 172.441 115.000 C 167.648 115.000 166.897 113.876 169.655 110.829 C 171.866 108.386 174.550 108.519 176.402 111.163 "/></g>
<g fill="#FFFFFFFF" stroke="#FFFFFFFF">
<path d="M 215.607 96.582 C 215.273 97.452 215.000 100.152 215.000 102.582 C 215.000 106.824 214.881 107.000 212.000 107.000 C 210.350 107.000 209.000 107.450 209.000 108.000 C 209.000 108.550 210.367 109.000 212.038 109.000 L 215.075 109.000 214.788 118.250 L 214.500 127.500 211.750 127.816 C 207.284 128.330 208.285 131.000 212.943 131.000 C 218.742 131.000 220.000 128.643 220.000 117.777 C 220.000 109.667 220.152 109.000 222.000 109.000 C 223.100 109.000 224.000 108.550 224.000 108.000 C 224.000 107.450 223.075 107.000 221.945 107.000 C 220.118 107.000 219.924 106.474 220.195 102.250 C 220.455 98.197 220.830 97.453 222.750 97.180 C 226.732 96.615 225.145 95.000 220.607 95.000 C 217.524 95.000 216.033 95.472 215.607 96.582 "/></g>
<g fill="#FFFFFFFF" stroke="#FFFFFFFF">
<path d="M 263.000 96.000 C 263.000 96.550 263.891 97.000 264.981 97.000 C 267.648 97.000 267.970 98.867 268.257 116.000 L 268.500 130.500 273.250 130.805 C 276.921 131.040 278.000 130.772 278.000 129.624 C 278.000 128.807 276.988 127.995 275.750 127.820 C 273.557 127.508 273.487 127.121 273.000 112.500 C 272.725 104.250 272.136 96.938 271.691 96.250 C 270.734 94.771 263.000 94.548 263.000 96.000 "/></g>
<g fill="#FFFFFFFF" stroke="#FFFFFFFF">
<path d="M 186.000 107.930 C 186.000 108.442 187.013 109.005 188.250 109.180 C 190.403 109.486 190.512 109.962 190.784 120.250 C 191.066 130.934 191.083 131.000 193.534 131.000 C 195.942 131.000 196.000 130.818 196.015 123.250 C 196.034 113.095 197.375 110.426 202.309 110.720 C 206.146 110.949 206.843 110.243 204.800 108.200 C 203.128 106.528 199.492 106.702 197.979 108.525 C 196.845 109.892 196.538 109.892 195.028 108.525 C 193.207 106.878 186.000 106.403 186.000 107.930 "/></g>
<g fill="#FFFFFFFF" stroke="#FFFFFFFF">
<path d="M 229.000 107.930 C 229.000 108.442 230.013 109.005 231.250 109.180 C 233.309 109.473 233.551 110.178 234.098 117.500 C 234.818 127.114 235.399 128.638 239.072 130.537 C 242.722 132.424 245.994 132.393 248.777 130.443 C 251.759 128.355 251.618 126.761 248.574 128.148 C 242.329 130.994 239.000 126.613 239.000 115.551 C 239.000 112.100 238.473 108.873 237.800 108.200 C 236.394 106.794 229.000 106.567 229.000 107.930 "/></g>
<g fill="#FFFFFFFF" stroke="#FFFFFFFF">
<path d="M 251.789 116.750 C 251.356 128.859 252.292 131.000 258.023 131.000 C 262.401 131.000 263.815 128.397 259.750 127.820 C 257.606 127.515 257.487 127.018 257.215 117.250 C 256.935 107.181 256.888 107.000 254.534 107.000 C 252.193 107.000 252.129 107.226 251.789 116.750 "/></g>
<g fill="#FFFFFFFF" stroke="#FFFFFFFF">
<path d="M 426.588 142.857 C 426.238 143.424 422.475 146.222 418.226 149.075 C 409.848 154.701 411.743 154.862 421.706 149.371 C 428.467 145.645 429.754 144.354 428.226 142.826 C 427.559 142.159 427.013 142.169 426.588 142.857 "/></g>
<g fill="#FFFFFFC3" stroke="#FFFFFFC3">
<path d="M 120.321 142.500 C 120.462 143.868 121.234 144.477 122.764 144.429 C 124.192 144.383 124.304 144.293 123.073 144.179 C 122.014 144.080 120.914 143.213 120.631 142.250 C 120.230 140.890 120.161 140.946 120.321 142.500 "/></g>
</svg>
