<?xml version="1.0" encoding="utf-8"?>
<!DOCTYPE svg PUBLIC "-//W3C//DTD SVG 20010904//EN" "http://www.w3.org/TR/2001/REC-SVG-20010904/DTD/svg10.dtd">
<svg version="1.0" xmlns="http://www.w3.org/2000/svg" width="602pt" height="222pt" viewBox="0 0 602 222" style="" preserveAspectRatio="xMidYMid meet">
<g fill="#D5347CFF" stroke="#D5347CFF">
<path d="M 488.500 40.480 C 464.453 45.774 445.789 64.052 439.469 88.500 C 435.561 103.615 436.839 123.018 442.504 134.598 C 448.506 146.865 461.900 156.784 476.000 159.401 C 479.336 160.021 479.268 159.927 474.548 157.404 C 458.718 148.941 448.000 128.612 448.000 107.050 C 448.000 80.298 463.158 60.481 488.596 53.975 C 498.658 51.402 510.808 51.373 518.937 53.903 C 533.871 58.551 543.922 72.983 536.365 78.927 C 532.965 81.602 529.600 81.560 527.039 78.811 C 524.427 76.008 524.470 75.322 527.250 75.421 C 528.853 75.477 529.592 74.853 529.820 73.250 C 530.089 71.351 529.677 71.000 527.177 71.000 C 523.899 71.000 523.000 72.379 523.000 77.407 C 523.000 86.759 536.656 88.712 543.950 80.404 C 546.598 77.388 547.000 76.169 547.000 71.143 C 547.000 56.034 537.459 44.869 520.744 40.420 C 514.186 38.674 496.554 38.707 488.500 40.480 "/></g>
<g fill="#6F519DFF" stroke="#6F519DFF">
<path d="M 415.500 24.222 C 413.850 24.807 411.221 26.234 409.658 27.393 C 408.095 28.552 407.645 29.192 408.658 28.816 C 409.671 28.439 412.075 28.130 414.000 28.130 L 417.500 28.128 414.296 29.724 C 409.702 32.012 409.157 34.072 413.460 32.883 C 417.919 31.652 421.760 33.195 422.603 36.555 C 424.035 42.259 418.087 53.933 411.764 57.832 C 406.031 61.366 403.825 61.381 389.786 57.984 C 379.420 55.476 375.071 54.873 370.000 55.241 C 361.660 55.845 353.813 59.238 350.029 63.876 L 347.073 67.500 349.817 65.317 C 353.229 62.602 361.162 58.028 362.487 58.012 C 363.029 58.005 361.229 59.514 358.487 61.365 C 349.705 67.289 346.465 77.330 350.956 84.696 C 353.720 89.229 357.177 91.167 362.500 91.167 C 370.175 91.167 374.803 86.238 372.017 81.032 C 370.488 78.175 366.621 78.651 366.180 81.750 C 365.993 83.070 366.386 84.000 367.130 84.000 C 368.116 84.000 368.132 84.268 367.203 85.197 C 366.273 86.127 365.390 85.937 363.253 84.348 C 357.623 80.162 359.979 71.578 367.636 68.379 C 372.357 66.406 375.895 66.655 384.719 69.578 C 407.909 77.259 422.903 71.795 430.820 52.777 C 435.062 42.588 435.749 37.250 433.557 31.511 C 431.304 25.612 427.887 22.978 422.615 23.079 C 420.352 23.122 417.150 23.637 415.500 24.222 M 385.097 65.591 C 389.608 67.015 396.268 68.811 399.899 69.581 L 406.500 70.981 400.000 70.533 C 396.425 70.286 389.708 68.941 385.074 67.542 C 372.344 63.702 367.617 64.246 361.045 70.311 L 357.589 73.500 360.107 70.085 C 363.288 65.770 368.401 63.000 373.183 63.000 C 375.225 63.000 380.587 64.166 385.097 65.591 "/></g>
<g fill="#0086CDFF" stroke="#0086CDFF">
<path d="M 436.000 119.228 C 436.000 123.602 432.198 134.358 428.884 139.362 C 425.720 144.138 425.720 144.140 426.312 154.319 C 427.384 172.741 432.436 185.600 442.600 195.777 C 452.506 205.695 461.960 209.015 480.000 208.909 L 491.500 208.841 485.072 207.447 C 468.449 203.842 454.574 193.275 447.701 178.985 C 443.946 171.177 440.989 160.681 441.085 155.500 C 441.141 152.518 441.149 152.522 442.529 156.282 C 444.452 161.520 451.229 170.854 455.937 174.750 C 458.098 176.538 462.033 179.039 464.683 180.309 L 469.500 182.618 466.804 180.059 C 461.349 174.881 453.166 164.352 450.550 159.145 C 449.071 156.200 447.274 150.800 446.557 147.145 C 445.840 143.490 444.080 138.250 442.645 135.500 C 441.210 132.750 439.304 127.575 438.409 124.000 C 436.572 116.655 436.000 115.523 436.000 119.228 "/></g>
<g fill="#6CB52DFF" stroke="#6CB52DFF">
<path d="M 483.191 58.025 C 479.170 59.078 473.614 61.174 470.842 62.682 C 460.614 68.250 452.654 80.180 449.394 94.830 C 444.655 116.132 455.616 135.928 475.808 142.532 C 481.879 144.518 495.483 144.180 500.500 141.919 L 503.500 140.566 500.500 141.173 C 491.424 143.007 479.694 141.224 472.673 136.942 C 468.653 134.491 469.277 134.509 476.593 137.057 C 479.842 138.188 485.425 139.337 489.000 139.611 C 496.785 140.206 500.500 138.707 500.500 134.970 C 500.500 132.402 498.011 131.468 497.250 133.750 C 497.020 134.441 497.637 135.000 498.631 135.000 C 500.344 135.000 500.346 135.082 498.675 136.750 C 495.436 139.983 480.662 137.929 470.739 132.867 C 467.010 130.964 459.000 123.535 459.000 121.978 C 459.000 121.549 460.360 122.468 462.021 124.020 C 465.055 126.854 471.339 130.218 476.000 131.505 C 477.595 131.945 476.797 131.092 473.798 129.150 C 463.813 122.684 458.530 111.837 459.202 99.182 C 460.086 82.546 469.962 72.078 487.214 69.491 C 495.800 68.203 502.107 72.006 503.870 79.533 L 504.799 83.500 504.900 79.200 C 505.081 71.435 501.242 67.074 492.836 65.497 C 489.670 64.903 482.995 66.060 475.500 68.502 C 474.400 68.860 475.224 68.045 477.331 66.691 C 482.084 63.636 491.368 61.724 497.142 62.612 C 509.640 64.532 515.379 72.669 510.950 82.188 L 509.500 85.304 512.173 82.774 C 520.650 74.752 516.401 61.256 504.101 57.138 C 499.211 55.501 491.591 55.824 483.191 58.025 "/></g>
<g fill="#1D1D1BFF" stroke="#1D1D1BFF">
<path d="M 139.000 86.500 C 139.000 87.399 139.922 88.000 141.300 88.000 C 145.145 88.000 146.000 89.862 146.000 98.230 L 146.000 106.060 143.104 103.919 C 136.099 98.740 124.653 101.544 120.323 109.500 C 117.185 115.266 116.955 124.564 119.830 129.436 C 122.222 133.490 128.269 136.763 134.042 137.128 C 137.839 137.368 143.779 134.739 144.667 132.426 C 145.112 131.264 145.720 131.485 147.568 133.478 C 149.525 135.590 150.806 136.000 155.452 136.000 C 160.333 136.000 161.000 135.760 161.000 134.000 C 161.000 132.450 160.333 132.000 158.035 132.000 C 156.127 132.000 154.701 131.310 154.035 130.066 C 153.424 128.924 153.000 120.210 153.000 108.788 C 153.000 85.501 152.820 85.000 144.443 85.000 C 140.271 85.000 139.000 85.350 139.000 86.500 M 142.923 107.589 C 145.914 110.105 146.000 110.415 146.000 118.666 C 146.000 126.714 145.849 127.305 143.077 130.077 C 140.784 132.369 139.258 133.000 136.000 133.000 C 128.254 133.000 123.775 125.212 125.534 114.802 C 127.070 105.706 136.190 101.923 142.923 107.589 "/></g>
<g fill="#F07E31FF" stroke="#F07E31FF">
<path d="M 352.500 40.887 C 336.984 45.397 325.313 55.897 317.362 72.500 C 310.397 87.046 309.830 94.497 315.743 93.817 C 319.241 93.415 320.215 89.520 317.067 88.521 C 315.940 88.164 314.556 88.156 313.991 88.505 C 312.262 89.574 317.730 76.249 320.871 71.740 C 327.556 62.143 337.557 54.554 349.324 50.152 C 357.316 47.162 357.624 47.506 350.186 51.113 C 339.374 56.356 329.734 67.530 327.422 77.500 C 326.866 79.893 327.558 79.268 330.840 74.408 C 340.333 60.353 352.300 52.941 366.723 52.184 C 376.665 51.662 385.038 53.140 394.481 57.084 C 398.321 58.688 402.821 59.998 404.481 59.996 C 407.545 59.992 414.000 56.729 414.000 55.184 C 414.000 53.809 405.558 48.155 398.788 44.997 C 386.061 39.059 365.170 37.204 352.500 40.887 "/></g>
<g fill="#1D1D1BFF" stroke="#1D1D1BFF">
<path d="M 171.500 102.881 C 169.300 103.891 166.730 105.585 165.788 106.645 C 163.264 109.487 160.629 116.136 160.890 119.000 C 161.016 120.375 161.204 122.400 161.309 123.500 C 161.414 124.600 161.801 125.729 162.170 126.009 C 162.538 126.290 162.988 127.181 163.170 127.989 C 163.678 130.253 169.850 134.875 174.043 136.131 C 183.485 138.960 194.391 131.957 195.696 122.227 C 196.898 113.266 193.295 106.402 185.541 102.880 C 180.427 100.557 176.560 100.557 171.500 102.881 M 182.783 106.561 C 186.150 108.919 188.000 113.331 188.000 119.000 C 188.000 130.244 179.941 136.668 173.685 130.412 C 167.771 124.498 167.679 114.121 173.490 108.310 C 177.150 104.650 179.440 104.219 182.783 106.561 "/></g>
<g fill="#F07E31FF" stroke="#F07E31FF">
<path d="M 420.037 68.110 C 418.133 69.700 415.965 71.000 415.220 71.000 C 414.241 71.000 414.436 71.804 415.924 73.893 C 426.030 88.086 428.556 108.698 422.520 127.706 C 418.269 141.091 410.601 150.773 398.999 157.405 C 393.702 160.432 393.886 160.519 401.068 158.388 C 413.576 154.678 422.374 148.583 428.171 139.615 C 435.280 128.615 438.005 114.441 436.035 98.711 C 434.800 88.854 430.378 75.600 426.242 69.360 L 423.498 65.221 420.037 68.110 "/></g>
<g fill="#0086CDFF" stroke="#0086CDFF">
<path d="M 447.865 14.102 C 444.802 17.471 442.513 17.668 430.675 15.582 C 420.888 13.857 417.340 14.724 411.262 20.326 C 406.117 25.068 406.541 25.502 412.988 22.091 C 418.606 19.119 426.311 18.808 430.225 21.395 C 431.723 22.386 434.147 25.645 435.611 28.637 C 440.819 39.283 439.746 53.090 432.613 67.211 C 429.699 72.980 429.408 74.174 430.537 75.711 C 432.751 78.725 438.535 65.120 440.830 51.500 L 442.683 40.500 443.433 48.000 C 444.609 59.757 440.840 75.099 435.262 81.263 C 433.825 82.851 433.767 83.811 434.808 88.851 C 435.464 92.024 436.043 95.943 436.095 97.560 C 436.149 99.209 437.192 96.386 438.471 91.132 C 440.799 81.571 447.643 66.538 451.088 63.421 C 455.499 59.428 451.477 33.286 445.326 25.976 L 442.834 23.014 445.465 22.013 C 447.052 21.410 448.695 19.581 449.603 17.408 C 451.797 12.158 451.004 10.650 447.865 14.102 "/></g>
<g fill="#1D1D1BFF" stroke="#1D1D1BFF">
<path d="M 339.000 103.500 C 339.000 104.627 340.205 105.000 343.845 105.000 C 349.546 105.000 352.107 107.134 352.345 112.083 C 352.495 115.204 352.339 115.332 347.000 116.453 C 340.046 117.912 335.498 120.311 333.287 123.684 C 331.279 126.750 331.486 131.722 333.728 134.230 C 337.518 138.471 348.744 137.194 351.447 132.214 C 352.825 129.675 352.923 129.643 352.960 131.715 C 353.011 134.526 355.755 136.000 360.934 136.000 C 364.151 136.000 365.000 135.632 365.000 134.237 C 365.000 133.268 363.988 132.030 362.750 131.487 C 360.793 130.628 360.462 129.640 360.207 123.888 L 359.915 117.275 363.581 116.680 C 367.528 116.040 371.000 113.532 371.000 111.322 C 371.000 110.174 370.637 110.180 368.750 111.355 C 367.513 112.126 365.074 113.018 363.332 113.337 C 360.325 113.888 360.096 113.703 358.832 109.709 C 357.133 104.342 352.862 102.004 344.750 102.002 C 340.305 102.000 339.000 102.340 339.000 103.500 M 353.000 122.695 C 353.000 127.681 348.958 132.000 344.291 132.000 C 340.188 132.000 338.003 128.484 339.739 124.674 C 340.985 121.938 346.348 119.055 350.250 119.023 C 352.758 119.002 353.000 119.325 353.000 122.695 "/></g>
<g fill="#0086CDFF" stroke="#0086CDFF">
<path d="M 412.158 98.585 C 401.770 103.928 395.086 105.797 390.998 104.499 C 389.398 103.991 389.098 103.502 389.899 102.701 C 391.568 101.032 391.224 100.000 389.000 100.000 C 386.598 100.000 386.278 103.156 388.493 104.994 C 391.038 107.107 401.646 105.749 409.500 102.306 C 413.411 100.591 416.158 99.820 415.725 100.557 C 414.499 102.647 405.182 106.799 397.000 108.901 L 389.500 110.829 396.000 110.897 C 403.653 110.977 414.112 108.929 420.520 106.094 L 425.086 104.074 422.894 107.975 C 414.629 122.681 397.851 133.107 378.500 135.562 C 372.957 136.266 372.728 136.391 375.500 137.202 C 380.123 138.556 390.898 138.496 397.000 137.084 C 403.547 135.568 417.848 128.797 421.342 125.559 C 424.223 122.889 425.510 115.863 425.257 104.193 C 425.094 96.688 424.384 92.900 423.183 93.132 C 422.807 93.204 417.846 95.658 412.158 98.585 "/></g>
<g fill="#1D1D1BFF" stroke="#1D1D1BFF">
<path d="M 196.000 103.500 C 196.000 104.422 196.937 105.000 198.429 105.000 C 203.365 105.000 204.000 106.947 204.000 122.071 L 204.000 136.000 207.500 136.000 L 211.000 136.000 211.000 124.089 L 211.000 112.178 214.077 109.589 C 217.858 106.407 223.669 106.102 227.128 108.903 C 229.267 110.635 229.524 111.789 229.989 121.753 C 230.617 135.199 231.130 136.000 239.122 136.000 C 244.333 136.000 245.000 135.773 245.000 134.000 C 245.000 132.476 244.333 132.000 242.200 132.000 C 237.768 132.000 237.000 130.405 237.000 121.201 C 237.000 111.446 235.276 106.780 230.580 103.826 C 226.380 101.184 218.166 101.762 213.776 105.007 C 211.676 106.560 210.482 106.945 210.218 106.154 C 209.237 103.210 206.677 102.000 201.429 102.000 C 197.270 102.000 196.000 102.351 196.000 103.500 "/></g>
<g fill="#1D1D1BFF" stroke="#1D1D1BFF">
<path d="M 68.000 103.500 C 68.000 104.407 68.927 105.000 70.345 105.000 C 75.196 105.000 76.000 107.464 76.000 122.329 L 76.000 136.000 79.500 136.000 L 83.000 136.000 83.015 124.250 C 83.024 117.788 83.361 112.024 83.765 111.442 C 85.402 109.085 89.637 107.000 92.788 107.000 C 100.080 107.000 102.000 110.559 102.000 124.078 C 102.000 135.000 102.761 136.000 111.071 136.000 C 116.333 136.000 117.000 135.775 117.000 134.000 C 117.000 132.383 116.333 132.000 113.519 132.000 C 109.447 132.000 109.293 131.597 108.729 119.454 C 108.296 110.155 106.315 105.852 101.393 103.516 C 96.737 101.307 91.955 101.652 86.399 104.596 C 83.705 106.024 81.822 106.865 82.216 106.464 C 82.610 106.063 81.864 104.894 80.558 103.867 C 77.501 101.462 68.000 101.185 68.000 103.500 "/></g>
<g fill="#1D1D1BFF" stroke="#1D1D1BFF">
<path d="M 254.316 102.943 C 249.125 105.300 246.887 109.349 246.295 117.455 C 245.498 128.378 251.118 135.400 261.653 136.644 C 267.106 137.287 274.999 135.554 275.002 133.711 C 275.004 132.852 273.109 132.598 268.488 132.836 C 262.218 133.159 261.843 133.043 258.565 129.765 C 256.520 127.720 254.882 124.890 254.469 122.686 C 253.293 116.416 253.871 116.000 263.769 116.000 C 273.474 116.000 275.000 115.280 275.000 110.701 C 275.000 105.531 268.187 100.944 260.625 101.022 C 259.456 101.034 256.617 101.899 254.316 102.943 M 266.667 106.559 C 267.442 107.619 267.946 109.389 267.788 110.493 C 267.540 112.219 266.626 112.542 261.250 112.798 C 255.265 113.083 255.000 112.995 255.000 110.736 C 255.000 105.037 263.364 102.042 266.667 106.559 "/></g>
<g fill="#575756FF" stroke="#575756FF">
<path d="M 162.000 43.694 C 164.756 44.679 166.000 47.340 166.000 52.248 C 166.000 57.076 165.983 57.101 163.777 55.557 C 162.555 54.701 159.677 54.000 157.381 54.000 C 148.188 54.000 143.314 66.468 149.923 73.077 C 153.675 76.829 160.116 77.179 163.686 73.826 C 165.529 72.094 166.000 71.970 166.000 73.219 C 166.000 75.066 168.042 76.000 172.082 76.000 C 175.580 76.000 176.147 73.302 172.750 72.820 C 170.569 72.510 170.492 72.116 170.255 60.000 C 169.922 42.971 169.925 42.982 164.731 43.079 C 162.404 43.122 161.175 43.399 162.000 43.694 M 163.686 58.174 C 168.719 62.903 165.383 74.000 158.927 74.000 C 154.444 74.000 152.000 70.891 152.000 65.189 C 152.000 56.972 158.349 53.161 163.686 58.174 "/></g>
<g fill="#575756FF" stroke="#575756FF">
<path d="M 92.901 57.106 C 87.839 62.524 89.260 71.597 95.684 74.883 C 99.724 76.949 104.707 76.234 108.234 73.082 C 111.124 70.500 111.500 69.569 111.500 65.000 C 111.500 60.431 111.124 59.500 108.234 56.918 C 105.633 54.594 104.036 54.000 100.385 54.000 C 96.548 54.000 95.330 54.505 92.901 57.106 M 104.927 58.635 C 108.882 63.662 106.239 74.000 101.000 74.000 C 98.154 74.000 95.000 69.268 95.000 65.000 C 95.000 60.732 98.154 56.000 101.000 56.000 C 102.020 56.000 103.788 57.186 104.927 58.635 "/></g>
<g fill="#1D1D1BFF" stroke="#1D1D1BFF">
<path d="M 287.500 101.888 C 284.624 103.148 282.071 106.264 281.077 109.731 C 279.958 113.635 282.578 117.054 290.054 121.443 C 293.049 123.201 296.160 125.815 296.967 127.252 C 298.299 129.624 298.257 130.059 296.502 131.998 C 294.857 133.816 293.802 134.055 289.407 133.608 C 286.568 133.318 283.684 132.951 282.998 132.791 C 282.311 132.631 281.553 133.034 281.313 133.686 C 281.059 134.376 282.471 135.315 284.688 135.930 C 295.093 138.820 303.000 135.180 303.000 127.500 C 303.000 123.261 301.298 121.178 294.028 116.518 C 290.259 114.102 286.873 111.175 286.504 110.013 C 284.626 104.096 294.618 99.872 297.182 105.500 C 297.808 106.875 298.924 108.000 299.661 108.000 C 301.200 108.000 301.503 103.429 300.024 102.515 C 298.266 101.428 289.546 100.992 287.500 101.888 "/></g>
<g fill="#1D1D1BFF" stroke="#1D1D1BFF">
<path d="M 50.000 103.500 C 50.000 104.325 50.845 105.000 51.878 105.000 C 55.193 105.000 55.821 107.246 56.164 120.333 C 56.556 135.299 56.982 136.000 65.691 136.000 C 70.333 136.000 71.000 135.749 71.000 134.000 C 71.000 132.450 70.333 132.000 68.035 132.000 C 63.772 132.000 63.000 129.712 63.000 117.066 C 63.000 107.333 62.759 105.759 61.000 104.000 C 58.483 101.483 50.000 101.097 50.000 103.500 "/></g>
<g fill="#575756FF" stroke="#575756FF">
<path d="M 50.000 55.000 C 50.000 55.550 50.607 56.000 51.349 56.000 C 52.091 56.000 54.819 60.509 57.412 66.020 C 60.004 71.532 62.508 75.804 62.976 75.515 C 63.445 75.225 65.063 71.841 66.572 67.994 C 68.081 64.147 69.492 61.000 69.707 61.000 C 69.922 61.000 71.714 64.402 73.689 68.560 C 75.664 72.719 77.642 75.756 78.086 75.310 C 78.863 74.530 87.000 55.538 87.000 54.505 C 87.000 54.227 85.650 54.000 84.000 54.000 C 82.350 54.000 81.000 54.450 81.000 55.000 C 81.000 55.550 81.675 56.000 82.500 56.000 C 84.435 56.000 84.367 56.369 81.130 63.414 L 78.413 69.328 75.057 61.630 C 73.211 57.397 71.282 54.073 70.770 54.243 C 70.258 54.414 68.444 57.894 66.740 61.977 L 63.640 69.400 60.180 61.700 C 56.861 54.314 56.583 54.000 53.360 54.000 C 51.512 54.000 50.000 54.450 50.000 55.000 "/></g>
<g fill="#1D1D1BFF" stroke="#1D1D1BFF">
<path d="M 306.000 103.500 C 306.000 104.384 306.923 105.006 308.250 105.015 C 313.077 105.048 313.479 106.107 313.831 119.712 C 314.230 135.093 314.721 136.000 322.655 136.000 C 327.272 136.000 328.000 135.737 328.000 134.066 C 328.000 132.705 327.193 132.039 325.273 131.816 C 321.129 131.336 320.032 127.996 320.015 115.821 C 319.997 102.938 319.414 102.000 311.429 102.000 C 307.270 102.000 306.000 102.351 306.000 103.500 "/></g>
<g fill="#575756FF" stroke="#575756FF">
<path d="M 114.000 54.930 C 114.000 55.442 115.013 56.005 116.250 56.180 C 118.384 56.484 118.515 57.001 118.786 66.250 C 119.048 75.176 119.238 76.000 121.036 76.000 C 122.821 76.000 123.000 75.285 123.000 68.155 C 123.000 59.382 124.536 56.750 129.656 56.750 C 133.970 56.750 136.000 60.161 136.000 67.411 C 136.000 70.891 136.525 74.125 137.200 74.800 C 138.983 76.583 145.000 76.352 145.000 74.500 C 145.000 73.675 144.148 73.000 143.107 73.000 C 140.690 73.000 140.000 71.123 140.000 64.553 C 140.000 57.248 137.430 54.000 131.650 54.000 C 129.337 54.000 126.491 54.669 125.324 55.486 C 123.448 56.800 123.137 56.800 122.633 55.486 C 122.000 53.838 114.000 53.323 114.000 54.930 "/></g>
<g fill="#575756FF" stroke="#575756FF">
<path d="M 181.229 54.646 C 179.007 55.580 177.000 60.745 177.000 65.527 C 177.000 69.308 177.535 70.689 179.923 73.077 C 182.428 75.582 183.608 75.998 188.173 75.985 C 191.103 75.976 194.175 75.533 195.000 75.000 C 196.084 74.300 195.169 74.026 191.702 74.015 C 187.810 74.003 186.442 73.501 184.452 71.354 C 183.040 69.830 182.000 67.497 182.000 65.854 C 182.000 63.039 182.080 63.000 187.878 63.000 C 195.366 63.000 197.315 61.243 194.310 57.204 C 192.650 54.974 191.439 54.466 187.399 54.306 C 184.704 54.199 181.928 54.353 181.229 54.646 M 189.429 56.571 C 192.355 59.498 191.362 61.000 186.500 61.000 C 181.581 61.000 181.228 60.547 183.557 57.223 C 185.390 54.606 187.256 54.399 189.429 56.571 "/></g>
<g fill="#575756FF" stroke="#575756FF">
<path d="M 270.675 44.004 C 272.747 44.839 272.866 45.573 273.175 59.479 C 273.532 75.505 273.711 75.956 279.750 75.985 C 283.524 76.002 284.368 73.333 280.750 72.820 C 278.567 72.510 278.482 72.068 277.902 58.000 C 277.573 50.025 277.236 43.388 277.152 43.250 C 277.068 43.113 275.088 43.029 272.750 43.063 C 269.294 43.115 268.906 43.291 270.675 44.004 "/></g>
<g fill="#575756FF" stroke="#575756FF">
<path d="M 225.667 43.667 C 225.300 44.033 225.000 46.508 225.000 49.167 C 225.000 53.656 224.822 54.000 222.500 54.000 C 221.125 54.000 220.000 54.450 220.000 55.000 C 220.000 55.550 221.143 56.000 222.540 56.000 C 225.079 56.000 225.081 56.005 224.790 64.250 C 224.520 71.942 224.348 72.522 222.250 72.820 C 219.087 73.269 219.358 76.000 222.566 76.000 C 228.261 76.000 229.000 74.732 229.000 64.965 C 229.000 56.667 229.149 56.000 231.000 56.000 C 232.100 56.000 233.000 55.550 233.000 55.000 C 233.000 54.450 232.074 54.000 230.943 54.000 C 229.142 54.000 228.923 53.472 229.193 49.773 C 229.435 46.433 230.024 45.283 232.000 44.288 C 234.414 43.073 234.359 43.029 230.417 43.015 C 228.171 43.007 226.033 43.300 225.667 43.667 "/></g>
<g fill="#575756FF" stroke="#575756FF">
<path d="M 199.000 55.000 C 199.000 55.550 199.852 56.000 200.893 56.000 C 203.503 56.000 204.000 57.854 204.000 67.582 C 204.000 75.333 204.158 76.000 206.000 76.000 C 207.831 76.000 208.000 75.333 208.000 68.111 C 208.000 61.976 208.404 59.722 209.817 57.978 C 211.344 56.092 211.973 55.915 213.756 56.870 C 215.150 57.615 216.091 57.661 216.498 57.003 C 218.327 54.044 211.317 52.708 208.948 55.563 C 207.771 56.981 207.569 56.981 206.775 55.563 C 205.807 53.833 199.000 53.340 199.000 55.000 "/></g>
<g fill="#575756FF" stroke="#575756FF">
<path d="M 238.000 54.943 C 238.000 55.524 238.852 56.000 239.893 56.000 C 242.349 56.000 243.000 57.875 243.000 64.947 C 243.000 72.402 245.486 76.000 250.638 76.000 C 254.442 76.000 258.000 74.516 258.000 72.930 C 258.000 72.275 257.332 72.287 256.066 72.965 C 250.216 76.095 247.721 73.242 247.030 62.632 L 246.500 54.500 242.250 54.193 C 239.735 54.011 238.000 54.317 238.000 54.943 "/></g>
<g fill="#575756FF" stroke="#575756FF">
<path d="M 259.000 61.418 C 259.000 65.498 258.740 69.513 258.423 70.341 C 257.564 72.579 261.540 76.000 265.000 76.000 C 268.566 76.000 269.201 73.310 265.750 72.820 C 263.626 72.518 263.484 71.980 263.212 63.250 C 262.951 54.823 262.750 54.000 260.962 54.000 C 259.189 54.000 259.000 54.714 259.000 61.418 "/></g>
<g fill="#1D1D1BFF" stroke="#1D1D1BFF">
<path d="M 258.000 61.066 C 258.000 65.502 257.505 70.056 256.900 71.186 C 256.101 72.681 256.101 73.056 256.900 72.562 C 257.505 72.188 258.000 72.332 258.000 72.882 C 258.000 74.358 255.994 75.348 251.500 76.090 L 247.500 76.750 251.027 76.875 C 252.968 76.944 255.526 76.320 256.712 75.489 C 258.077 74.533 259.098 74.350 259.493 74.989 C 259.837 75.545 260.541 76.000 261.059 76.000 C 261.577 76.000 261.065 75.065 259.923 73.923 C 258.780 72.780 258.105 71.168 258.423 70.341 C 258.740 69.513 259.000 65.498 259.000 61.418 C 259.000 54.667 259.180 54.000 261.000 54.000 C 262.849 54.000 263.000 54.667 263.000 62.833 C 263.000 67.692 263.283 71.949 263.628 72.295 C 263.973 72.640 264.173 68.440 264.071 62.961 L 263.886 53.000 260.943 53.000 L 258.000 53.000 258.000 61.066 "/></g>
<g fill="#0086CDFF" stroke="#0086CDFF">
<path d="M 418.474 86.029 C 417.441 87.171 413.935 89.881 410.684 92.052 C 403.812 96.641 404.018 97.032 411.400 93.418 C 418.737 89.825 422.788 86.444 421.426 85.051 C 420.650 84.257 419.832 84.528 418.474 86.029 "/></g>
<g fill="#1D1D1BFF" stroke="#1D1D1BFF">
<path d="M 225.630 42.703 C 225.243 43.090 227.080 43.299 229.713 43.168 C 234.206 42.943 234.346 43.009 232.000 44.238 C 230.035 45.267 229.434 46.451 229.193 49.773 C 228.927 53.419 229.157 54.000 230.859 54.000 C 231.945 54.000 233.060 54.563 233.338 55.250 C 233.639 55.997 233.874 55.795 233.921 54.750 C 233.972 53.624 233.265 53.000 231.940 53.000 C 230.170 53.000 229.923 52.470 230.190 49.250 C 230.439 46.238 230.943 45.437 232.750 45.180 C 233.988 45.005 235.000 44.217 235.000 43.430 C 235.000 42.410 233.758 42.000 230.667 42.000 C 228.283 42.000 226.017 42.317 225.630 42.703 "/></g>
<g fill="#00000001" stroke="#00000001">
<path d="M 211.231 124.500 L 211.000 136.000 207.500 136.200 C 204.095 136.395 204.101 136.401 207.750 136.450 L 211.500 136.500 211.481 124.750 L 211.462 113.000 211.231 124.500 "/></g>
<g fill="#1D1D1BFF" stroke="#1D1D1BFF">
<path d="M 124.611 58.878 C 123.242 60.390 122.978 62.288 123.254 68.628 L 123.598 76.500 123.799 68.307 C 123.976 61.098 124.267 59.926 126.223 58.557 C 127.445 57.701 127.965 57.000 127.377 57.000 C 126.790 57.000 125.545 57.845 124.611 58.878 "/></g>
<g fill="#1D1D1BFF" stroke="#1D1D1BFF">
<path d="M 158.500 56.733 C 163.110 57.400 164.976 59.685 165.175 64.905 L 165.349 69.500 165.738 65.132 C 166.231 59.592 163.303 55.920 158.576 56.150 L 155.500 56.300 158.500 56.733 "/></g>
<g fill="#00000001" stroke="#00000001">
<path d="M 242.750 131.656 C 244.139 131.954 245.000 132.877 245.000 134.070 C 245.000 135.691 244.200 136.034 240.000 136.212 L 235.000 136.423 240.250 136.462 C 245.194 136.498 245.500 136.354 245.500 134.000 C 245.500 132.044 244.956 131.464 243.000 131.336 C 240.797 131.192 240.767 131.230 242.750 131.656 "/></g>
<g fill="#1D1D1BFF" stroke="#1D1D1BFF">
<path d="M 477.500 66.553 C 474.633 68.376 474.208 68.904 476.000 68.416 C 477.375 68.042 478.642 67.370 478.815 66.924 C 478.988 66.478 479.849 66.389 480.729 66.726 C 481.853 67.157 482.094 66.960 481.539 66.063 C 480.934 65.084 481.538 64.927 484.125 65.391 C 486.636 65.840 486.988 65.758 485.500 65.068 C 482.492 63.673 481.840 63.794 477.500 66.553 "/></g>
<g fill="#1D1D1BFF" stroke="#1D1D1BFF">
<path d="M 350.525 65.226 C 349.539 66.176 348.333 66.706 347.845 66.404 C 347.357 66.103 346.266 67.512 345.420 69.536 C 343.747 73.542 344.148 75.460 345.954 72.086 C 346.568 70.939 346.862 70.000 346.607 70.000 C 346.352 70.000 347.533 68.538 349.230 66.750 C 350.928 64.963 351.511 64.277 350.525 65.226 "/></g>
<g fill="#1D1D1BFF" stroke="#1D1D1BFF">
<path d="M 224.123 64.500 C 223.935 69.450 224.076 72.783 224.438 71.906 C 224.799 71.030 224.953 66.980 224.780 62.906 L 224.465 55.500 224.123 64.500 "/></g>
<g fill="#1D1D1BFF" stroke="#1D1D1BFF">
<path d="M 160.000 43.374 C 160.000 44.264 161.100 44.958 162.750 45.109 L 165.500 45.362 163.000 44.244 C 160.662 43.199 160.775 43.123 164.750 43.063 C 167.088 43.029 169.068 43.450 169.150 44.000 C 169.233 44.550 169.345 44.438 169.400 43.750 C 169.464 42.950 167.791 42.390 164.750 42.195 C 161.081 41.960 160.000 42.228 160.000 43.374 "/></g>
<g fill="#1D1D1BFF" stroke="#1D1D1BFF">
<path d="M 393.000 58.110 C 391.771 58.994 391.847 59.075 393.420 58.560 C 394.476 58.215 395.625 58.394 395.974 58.958 C 396.323 59.523 398.834 60.199 401.554 60.462 C 405.532 60.845 405.815 60.785 403.000 60.154 C 401.075 59.723 398.517 58.837 397.316 58.185 C 394.696 56.764 394.867 56.767 393.000 58.110 "/></g>
<g fill="#1D1D1BFF" stroke="#1D1D1BFF">
<path d="M 90.890 71.740 C 92.440 74.709 97.115 77.032 101.200 76.864 C 103.816 76.756 103.982 76.646 102.000 76.334 C 96.209 75.422 94.700 74.782 92.275 72.210 C 90.107 69.909 89.898 69.838 90.890 71.740 "/></g>
<g fill="#1D1D1BFF" stroke="#1D1D1BFF">
<path d="M 135.193 67.128 C 135.039 72.405 135.357 74.035 136.750 75.128 C 138.284 76.331 138.352 76.310 137.303 74.962 C 136.645 74.116 135.944 70.516 135.746 66.962 L 135.385 60.500 135.193 67.128 "/></g>
<g fill="#1D1D1BFF" stroke="#1D1D1BFF">
<path d="M 198.079 54.750 C 198.126 55.795 198.361 55.997 198.662 55.250 C 199.395 53.434 205.721 53.679 206.775 55.563 C 207.567 56.978 207.775 56.976 208.967 55.540 C 210.079 54.200 210.045 54.046 208.743 54.545 C 207.895 54.870 206.905 54.656 206.542 54.068 C 206.179 53.481 204.109 53.000 201.941 53.000 C 198.824 53.000 198.017 53.366 198.079 54.750 "/></g>
<g fill="#1D1D1BFF" stroke="#1D1D1BFF">
<path d="M 194.500 62.013 C 193.950 62.496 190.800 63.055 187.500 63.256 L 181.500 63.622 187.685 63.811 C 192.159 63.948 194.095 63.604 194.685 62.568 C 195.211 61.644 195.145 61.448 194.500 62.013 "/></g>
<g fill="#1D1D1BFF" stroke="#1D1D1BFF">
<path d="M 101.214 53.926 C 103.807 54.288 106.979 55.465 108.262 56.542 C 109.546 57.619 109.330 57.263 107.782 55.750 C 105.539 53.557 104.110 53.027 100.734 53.134 L 96.500 53.267 101.214 53.926 "/></g>
<g fill="#1D1D1BFF" stroke="#1D1D1BFF">
<path d="M 224.175 49.180 C 224.033 52.171 223.578 52.921 221.750 53.180 C 220.513 53.356 219.545 54.063 219.600 54.750 C 219.655 55.438 219.768 55.550 219.850 55.000 C 219.933 54.450 221.151 54.000 222.557 54.000 C 224.960 54.000 225.092 53.742 224.732 49.750 C 224.356 45.568 224.347 45.559 224.175 49.180 "/></g>
<g fill="#1D1D1BFF" stroke="#1D1D1BFF">
<path d="M 462.507 125.989 C 462.163 126.545 462.134 127.056 462.441 127.125 C 462.748 127.194 463.450 127.363 464.000 127.500 C 464.550 127.638 465.477 127.806 466.059 127.875 C 466.641 127.944 466.859 128.419 466.542 128.932 C 466.226 129.444 466.987 130.510 468.233 131.300 C 470.232 132.566 470.322 132.562 469.000 131.262 C 468.175 130.450 467.500 129.393 467.500 128.913 C 467.500 127.405 463.191 124.882 462.507 125.989 "/></g>
<g fill="#1D1D1BFF" stroke="#1D1D1BFF">
<path d="M 362.250 72.618 C 360.064 75.194 359.185 80.852 360.730 82.397 C 361.132 82.799 361.320 81.488 361.147 79.484 C 360.951 77.214 361.524 74.733 362.666 72.904 L 364.500 69.967 362.250 72.618 "/></g>
<g fill="#1D1D1BFF" stroke="#1D1D1BFF">
<path d="M 397.000 69.988 C 397.000 70.545 399.100 71.000 401.667 71.000 C 407.220 71.000 407.074 70.519 401.250 69.627 C 398.621 69.225 397.000 69.362 397.000 69.988 "/></g>
<g fill="#1D1D1BFF" stroke="#1D1D1BFF">
<path d="M 448.000 115.441 C 448.000 116.234 448.408 117.134 448.906 117.442 C 449.404 117.750 449.599 119.014 449.337 120.251 C 448.934 122.161 449.024 122.249 449.937 120.829 C 450.663 119.699 450.694 118.324 450.030 116.579 C 448.949 113.737 448.000 113.204 448.000 115.441 "/></g>
<g fill="#1D1D1BFF" stroke="#1D1D1BFF">
<path d="M 317.683 70.010 C 316.133 72.864 315.045 75.378 315.264 75.598 C 315.484 75.817 316.751 73.482 318.081 70.409 L 320.500 64.822 317.683 70.010 "/></g>
<g fill="#1D1D1BFF" stroke="#1D1D1BFF">
<path d="M 370.665 64.000 C 371.872 64.486 374.084 64.496 375.665 64.022 C 378.115 63.287 377.820 63.169 373.500 63.149 C 369.680 63.132 369.011 63.333 370.665 64.000 "/></g>
<g fill="#1D1D1BFF" stroke="#1D1D1BFF">
<path d="M 164.982 51.337 C 164.701 53.997 164.841 56.401 165.291 56.680 C 165.742 56.959 165.972 54.782 165.801 51.843 L 165.491 46.500 164.982 51.337 "/></g>
<g fill="#1D1D1BFF" stroke="#1D1D1BFF">
<path d="M 311.063 91.050 C 311.029 91.903 311.540 93.140 312.200 93.800 C 313.564 95.164 317.626 95.414 318.388 94.181 C 318.667 93.730 317.572 93.556 315.956 93.793 C 313.589 94.141 312.835 93.765 312.073 91.862 C 311.522 90.488 311.100 90.148 311.063 91.050 "/></g>
<g fill="#1D1D1BFF" stroke="#1D1D1BFF">
<path d="M 360.849 69.091 L 358.304 72.500 361.183 70.094 C 362.767 68.770 363.912 67.236 363.728 66.685 C 363.544 66.133 362.249 67.216 360.849 69.091 "/></g>
<g fill="#1D1D1BFF" stroke="#1D1D1BFF">
<path d="M 339.000 64.953 L 334.500 69.556 339.000 64.953 L 343.500 60.350 339.000 64.953 "/></g>
<g fill="#1D1D1BFF" stroke="#1D1D1BFF">
<path d="M 359.250 59.220 C 358.013 59.817 357.000 60.713 357.000 61.212 C 357.000 61.710 356.480 61.797 355.845 61.405 C 355.131 60.963 354.962 61.130 355.403 61.843 C 355.899 62.646 357.226 62.239 359.789 60.497 C 363.551 57.941 363.272 57.281 359.250 59.220 "/></g>
<g fill="#1D1D1BFF" stroke="#1D1D1BFF">
<path d="M 97.405 58.250 C 95.502 60.498 95.502 60.498 97.579 58.750 C 98.722 57.788 100.262 57.000 101.000 57.000 C 101.738 57.000 103.278 57.788 104.421 58.750 C 106.498 60.498 106.498 60.498 104.595 58.250 C 103.547 57.013 101.930 56.000 101.000 56.000 C 100.070 56.000 98.453 57.013 97.405 58.250 "/></g>
<g fill="#1D1D1BFF" stroke="#1D1D1BFF">
<path d="M 241.667 53.911 C 244.509 54.257 246.620 54.193 246.358 53.770 C 246.096 53.346 243.771 53.063 241.191 53.141 L 236.500 53.282 241.667 53.911 "/></g>
<g fill="#1D1D1BFF" stroke="#1D1D1BFF">
<path d="M 113.015 54.750 C 113.025 55.898 113.286 56.098 113.774 55.331 C 114.183 54.689 116.089 53.973 118.009 53.741 C 121.336 53.340 121.300 53.313 117.250 53.160 C 113.803 53.030 113.003 53.331 113.015 54.750 "/></g>
<g fill="#1D1D1BFF" stroke="#1D1D1BFF">
<path d="M 411.000 154.550 C 408.525 155.848 406.855 156.930 407.290 156.955 C 408.390 157.018 416.273 152.937 415.847 152.525 C 415.656 152.341 413.475 153.252 411.000 154.550 "/></g>
<g fill="#1D1D1BFF" stroke="#1D1D1BFF">
<path d="M 496.664 132.816 C 496.183 133.548 496.307 134.665 496.956 135.447 C 497.804 136.468 497.763 136.934 496.792 137.324 C 496.025 137.632 495.958 137.874 496.628 137.921 C 497.248 137.964 498.315 137.325 499.000 136.500 C 500.022 135.269 499.946 135.000 498.579 135.000 C 497.553 135.000 497.025 134.336 497.206 133.272 C 497.415 132.042 497.259 131.911 496.664 132.816 "/></g>
<g fill="#1D1D1BFF" stroke="#1D1D1BFF">
<path d="M 468.283 124.667 C 469.814 126.324 471.933 128.089 472.992 128.589 C 474.051 129.090 472.799 127.735 470.209 125.578 C 466.657 122.620 466.184 122.396 468.283 124.667 "/></g>
<g fill="#1D1D1BFF" stroke="#1D1D1BFF">
<path d="M 529.769 73.882 C 529.277 75.681 528.615 76.133 527.062 75.727 C 525.512 75.321 525.199 75.533 525.789 76.588 C 526.451 77.770 526.926 77.740 528.841 76.399 C 530.089 75.525 530.955 74.065 530.765 73.155 C 530.513 71.949 530.242 72.147 529.769 73.882 "/></g>
<g fill="#1D1D1BFF" stroke="#1D1D1BFF">
<path d="M 507.750 67.746 C 509.538 69.427 511.000 71.372 511.000 72.068 C 511.000 72.764 511.286 73.047 511.635 72.698 C 512.574 71.759 509.345 67.253 506.750 65.880 C 505.179 65.049 505.481 65.612 507.750 67.746 "/></g>
<g fill="#1D1D1BFF" stroke="#1D1D1BFF">
<path d="M 49.015 54.750 C 49.025 55.886 49.290 56.093 49.769 55.340 C 50.174 54.702 51.855 53.982 53.503 53.740 C 56.221 53.341 56.151 53.286 52.750 53.150 C 49.783 53.031 49.003 53.365 49.015 54.750 "/></g>
<g fill="#1D1D1BFF" stroke="#1D1D1BFF">
<path d="M 346.150 51.889 C 346.068 52.378 345.438 52.715 344.750 52.639 C 344.063 52.563 343.349 52.950 343.165 53.500 C 342.981 54.050 342.306 55.175 341.665 56.000 C 340.653 57.303 340.728 57.321 342.239 56.137 C 343.195 55.387 343.713 54.344 343.389 53.820 C 343.064 53.295 343.632 53.009 344.650 53.183 C 345.667 53.357 346.455 52.938 346.400 52.250 C 346.345 51.563 346.233 51.400 346.150 51.889 "/></g>
<g fill="#1D1D1BFF" stroke="#1D1D1BFF">
<path d="M 351.250 49.252 C 349.463 49.823 348.000 50.638 348.000 51.064 C 348.000 51.490 349.861 51.108 352.135 50.215 C 356.825 48.372 356.186 47.677 351.250 49.252 "/></g>
<g fill="#1D1D1BFF" stroke="#1D1D1BFF">
<path d="M 464.000 149.000 L 468.000 153.000 464.000 149.000 L 460.000 145.000 464.000 149.000 "/></g>
<g fill="#1D1D1BFF" stroke="#1D1D1BFF">
<path d="M 504.750 138.823 C 503.788 139.001 503.000 139.550 503.000 140.042 C 503.000 140.534 502.213 140.692 501.250 140.393 C 499.743 139.925 499.717 139.991 501.064 140.870 C 502.210 141.618 503.147 141.437 504.564 140.196 C 506.287 138.687 506.307 138.536 504.750 138.823 "/></g>
<g fill="#1D1D1BFF" stroke="#1D1D1BFF">
<path d="M 503.102 81.309 C 503.046 83.404 503.395 84.874 503.877 84.576 C 504.360 84.278 504.406 82.564 503.980 80.767 L 503.205 77.500 503.102 81.309 "/></g>
<g fill="#1D1D1BFF" stroke="#1D1D1BFF">
<path d="M 248.030 70.628 C 247.979 72.519 250.757 74.179 253.195 73.713 C 255.275 73.315 255.236 73.259 252.800 73.136 C 251.315 73.061 249.641 72.213 249.080 71.250 C 248.519 70.288 248.047 70.007 248.030 70.628 "/></g>
<g fill="#1D1D1BFF" stroke="#1D1D1BFF">
<path d="M 334.694 57.771 L 330.888 60.500 334.514 58.500 C 336.508 57.400 338.221 56.172 338.320 55.771 C 338.419 55.371 336.787 56.271 334.694 57.771 "/></g>
<g fill="#1D1D1BFF" stroke="#1D1D1BFF">
<path d="M 457.000 56.942 L 453.500 60.562 457.000 56.942 L 460.500 53.323 457.000 56.942 "/></g>
<g fill="#1D1D1BFF" stroke="#1D1D1BFF">
<path d="M 84.250 53.958 C 86.313 54.358 88.000 54.306 88.000 53.843 C 88.000 53.379 86.313 53.052 84.250 53.115 L 80.500 53.230 84.250 53.958 "/></g>
<g fill="#1D1D1BFF" stroke="#1D1D1BFF">
<path d="M 500.711 134.004 C 501.000 135.108 500.620 136.796 499.868 137.755 C 498.629 139.335 498.665 139.371 500.250 138.128 C 502.115 136.665 502.596 133.487 501.093 132.558 C 500.595 132.249 500.423 132.900 500.711 134.004 "/></g>
<g fill="#1D1D1BFF" stroke="#1D1D1BFF">
<path d="M 522.750 72.589 C 522.338 72.998 522.060 74.721 522.133 76.417 C 522.255 79.254 522.314 79.194 522.883 75.672 C 523.222 73.567 523.163 72.179 522.750 72.589 "/></g>
<g fill="#1D1D1BFF" stroke="#1D1D1BFF">
<path d="M 147.000 70.903 C 147.000 71.776 151.341 76.000 152.238 76.000 C 152.572 76.000 151.531 74.685 149.923 73.077 C 148.315 71.469 147.000 70.491 147.000 70.903 "/></g>
<g fill="#1D1D1BFF" stroke="#1D1D1BFF">
<path d="M 104.177 71.499 C 103.450 72.259 101.875 73.071 100.677 73.304 L 98.500 73.728 100.656 73.864 C 101.842 73.939 103.417 73.127 104.156 72.059 C 105.215 70.529 105.220 70.411 104.177 71.499 "/></g>
<g fill="#1D1D1BFF" stroke="#1D1D1BFF">
<path d="M 463.437 67.205 L 460.500 70.410 464.285 67.205 C 466.366 65.442 467.688 64.000 467.222 64.000 C 466.756 64.000 465.052 65.442 463.437 67.205 "/></g>
<g fill="#1D1D1BFF" stroke="#1D1D1BFF">
<path d="M 325.500 66.435 L 322.500 69.564 325.500 66.435 L 328.500 63.305 325.500 66.435 "/></g>
<g fill="#1D1D1BFF" stroke="#1D1D1BFF">
<path d="M 149.750 56.900 C 148.238 58.390 147.000 59.963 147.000 60.394 C 147.000 60.826 148.238 59.607 149.750 57.685 L 152.500 54.191 149.750 56.900 "/></g>
<g fill="#1D1D1BFF" stroke="#1D1D1BFF">
<path d="M 69.507 53.989 C 69.165 54.542 69.539 54.730 70.358 54.416 C 71.274 54.064 72.073 54.656 72.501 56.003 C 72.876 57.184 73.403 57.930 73.672 57.661 C 74.367 56.966 72.114 53.000 71.024 53.000 C 70.526 53.000 69.843 53.445 69.507 53.989 "/></g>
<g fill="#1D1D1BFF" stroke="#1D1D1BFF">
<path d="M 538.500 49.500 L 542.000 53.000 538.500 49.500 L 535.000 46.000 538.500 49.500 "/></g>
<g fill="#1D1D1BFF" stroke="#1D1D1BFF">
<path d="M 410.000 148.924 L 407.500 151.566 410.000 148.924 L 412.500 146.282 410.000 148.924 "/></g>
<g fill="#1D1D1BFF" stroke="#1D1D1BFF">
<path d="M 352.924 88.298 C 354.258 89.784 355.755 91.000 356.251 91.000 C 356.747 91.000 355.656 89.784 353.827 88.298 L 350.500 85.596 352.924 88.298 "/></g>
<g fill="#1D1D1BFF" stroke="#1D1D1BFF">
<path d="M 510.317 81.321 C 509.666 82.685 509.413 84.080 509.755 84.422 C 510.369 85.035 510.679 84.243 511.222 80.671 C 511.397 79.518 511.062 79.759 510.317 81.321 "/></g>
<g fill="#1D1D1BFF" stroke="#1D1D1BFF">
<path d="M 326.046 80.500 C 326.035 82.710 326.273 83.117 326.951 82.046 C 327.502 81.174 327.508 79.972 326.966 79.046 C 326.282 77.878 326.057 78.234 326.046 80.500 "/></g>
<g fill="#1D1D1BFF" stroke="#1D1D1BFF">
<path d="M 63.691 74.364 C 63.288 75.413 62.505 75.839 61.757 75.417 C 60.802 74.877 60.811 75.041 61.792 76.095 C 62.892 77.277 63.223 77.262 64.025 75.992 C 64.544 75.171 64.832 74.073 64.667 73.551 C 64.502 73.028 64.063 73.394 63.691 74.364 "/></g>
<g fill="#1D1D1BFF" stroke="#1D1D1BFF">
<path d="M 163.500 74.122 C 162.400 75.411 162.216 75.915 163.092 75.241 C 163.968 74.568 165.029 74.351 165.450 74.759 C 165.872 75.166 166.056 74.663 165.858 73.640 C 165.529 71.932 165.336 71.971 163.500 74.122 "/></g>
<g fill="#1D1D1BFF" stroke="#1D1D1BFF">
<path d="M 500.298 73.827 C 501.784 75.656 503.000 76.747 503.000 76.251 C 503.000 75.755 501.784 74.258 500.298 72.924 L 497.596 70.500 500.298 73.827 "/></g>
<g fill="#1D1D1BFF" stroke="#1D1D1BFF">
<path d="M 411.500 72.144 C 409.590 73.001 409.596 73.023 411.637 72.644 C 412.812 72.425 414.252 72.529 414.838 72.873 C 415.424 73.218 415.362 72.993 414.701 72.374 C 413.925 71.645 412.793 71.564 411.500 72.144 "/></g>
<g fill="#1D1D1BFF" stroke="#1D1D1BFF">
<path d="M 107.694 73.680 C 106.151 74.956 105.312 76.000 105.831 76.000 C 106.349 76.000 107.611 74.956 108.636 73.680 L 110.500 71.360 107.694 73.680 "/></g>
<g fill="#1D1D1BFF" stroke="#1D1D1BFF">
<path d="M 515.464 67.000 C 516.266 68.925 516.939 69.799 516.961 68.941 C 516.982 68.084 516.326 66.509 515.503 65.441 C 514.168 63.711 514.164 63.881 515.464 67.000 "/></g>
<g fill="#1D1D1BFF" stroke="#1D1D1BFF">
<path d="M 365.459 65.067 C 365.096 65.653 365.070 66.403 365.400 66.733 C 365.730 67.063 366.000 66.822 366.000 66.198 C 366.000 65.550 366.714 65.337 367.664 65.701 C 368.783 66.131 369.091 65.957 368.605 65.170 C 367.703 63.711 366.325 63.666 365.459 65.067 "/></g>
<g fill="#1D1D1BFF" stroke="#1D1D1BFF">
<path d="M 62.157 66.278 C 62.876 67.956 63.620 68.616 64.035 67.943 C 64.414 67.330 64.580 66.980 64.405 67.165 C 64.230 67.349 63.384 66.600 62.527 65.500 C 61.059 63.617 61.037 63.663 62.157 66.278 "/></g>
<g fill="#1D1D1BFF" stroke="#1D1D1BFF">
<path d="M 413.493 55.154 C 413.616 56.824 413.738 56.833 415.286 55.286 C 416.833 53.738 416.824 53.616 415.154 53.493 C 414.005 53.408 413.408 54.005 413.493 55.154 "/></g>
<g fill="#1D1D1BFF" stroke="#1D1D1BFF">
<path d="M 478.508 159.988 C 478.153 160.562 478.882 160.987 480.191 160.970 C 482.182 160.943 482.268 160.804 480.817 159.957 C 479.705 159.308 478.921 159.319 478.508 159.988 "/></g>
<g fill="#1D1D1BFF" stroke="#1D1D1BFF">
<path d="M 469.856 154.306 C 470.602 155.216 471.905 156.082 472.751 156.231 C 473.598 156.379 472.987 155.634 471.395 154.575 C 469.135 153.073 468.797 153.014 469.856 154.306 "/></g>
<g fill="#1D1D1BFF" stroke="#1D1D1BFF">
<path d="M 455.856 151.306 C 456.602 152.216 457.905 153.082 458.751 153.231 C 459.598 153.379 458.987 152.634 457.395 151.575 C 455.135 150.073 454.797 150.014 455.856 151.306 "/></g>
<g fill="#1D1D1BFF" stroke="#1D1D1BFF">
<path d="M 450.000 146.000 L 452.500 148.500 450.000 146.000 L 447.500 143.500 450.000 146.000 "/></g>
<g fill="#1D1D1BFF" stroke="#1D1D1BFF">
<path d="M 414.575 142.605 C 413.073 144.865 413.014 145.203 414.306 144.144 C 415.216 143.398 416.082 142.095 416.231 141.249 C 416.379 140.402 415.634 141.013 414.575 142.605 "/></g>
<g fill="#1D1D1BFF" stroke="#1D1D1BFF">
<path d="M 482.000 140.000 C 480.172 141.181 481.751 141.181 484.500 140.000 C 485.819 139.433 485.989 139.122 485.000 139.086 C 484.175 139.055 482.825 139.467 482.000 140.000 "/></g>
<g fill="#1D1D1BFF" stroke="#1D1D1BFF">
<path d="M 472.488 136.584 C 473.582 137.401 474.613 137.661 474.779 137.162 C 474.946 136.663 474.051 135.995 472.791 135.677 C 470.556 135.114 470.549 135.136 472.488 136.584 "/></g>
<g fill="#1D1D1BFF" stroke="#1D1D1BFF">
<path d="M 461.040 113.559 C 461.018 114.141 461.699 115.491 462.552 116.559 C 463.962 118.321 463.965 118.223 462.592 115.500 C 461.761 113.850 461.062 112.976 461.040 113.559 "/></g>
<g fill="#1D1D1BFF" stroke="#1D1D1BFF">
<path d="M 543.500 81.410 L 541.500 83.567 543.500 81.410 L 545.500 79.253 543.500 81.410 "/></g>
<g fill="#1D1D1BFF" stroke="#1D1D1BFF">
<path d="M 365.750 79.608 C 365.338 80.007 365.050 81.271 365.111 82.417 C 365.192 83.947 365.391 83.754 365.861 81.691 C 366.212 80.146 366.163 79.208 365.750 79.608 "/></g>
<g fill="#1D1D1BFF" stroke="#1D1D1BFF">
<path d="M 312.636 80.825 C 312.186 82.104 312.083 83.417 312.409 83.742 C 312.945 84.278 313.150 83.433 313.377 79.750 C 313.419 79.063 313.086 79.546 312.636 80.825 "/></g>
<g fill="#1D1D1BFF" stroke="#1D1D1BFF">
<path d="M 536.982 77.532 C 535.515 79.909 535.519 79.913 537.411 77.960 C 538.461 76.875 539.128 75.795 538.893 75.559 C 538.657 75.324 537.797 76.212 536.982 77.532 "/></g>
<g fill="#1D1D1BFF" stroke="#1D1D1BFF">
<path d="M 318.169 75.921 C 317.437 77.159 317.045 78.378 317.297 78.631 C 317.550 78.883 318.149 77.870 318.628 76.380 C 319.466 73.776 319.448 73.758 318.169 75.921 "/></g>
<g fill="#1D1D1BFF" stroke="#1D1D1BFF">
<path d="M 78.691 74.364 C 78.302 75.377 77.520 75.821 76.853 75.409 C 76.114 74.952 75.962 75.129 76.435 75.894 C 77.340 77.360 80.283 75.349 79.717 73.650 C 79.524 73.073 79.063 73.394 78.691 74.364 "/></g>
<g fill="#1D1D1BFF" stroke="#1D1D1BFF">
<path d="M 273.321 73.500 C 273.435 74.600 274.084 75.455 274.764 75.400 C 275.444 75.345 275.583 75.233 275.073 75.150 C 274.564 75.068 273.914 74.213 273.631 73.250 C 273.230 71.890 273.161 71.946 273.321 73.500 "/></g>
<g fill="#1D1D1BFF" stroke="#1D1D1BFF">
<path d="M 179.405 73.800 C 180.453 75.010 181.751 76.000 182.290 76.000 C 182.829 76.000 181.972 75.010 180.385 73.800 L 177.500 71.600 179.405 73.800 "/></g>
<g fill="#1D1D1BFF" stroke="#1D1D1BFF">
<path d="M 243.000 71.710 C 243.000 72.249 243.990 73.547 245.200 74.595 L 247.400 76.500 245.200 73.615 C 243.990 72.028 243.000 71.171 243.000 71.710 "/></g>
<g fill="#1D1D1BFF" stroke="#1D1D1BFF">
<path d="M 392.500 69.000 C 392.160 69.550 392.584 70.000 393.441 70.000 C 394.298 70.000 395.000 69.550 395.000 69.000 C 395.000 68.450 394.577 68.000 394.059 68.000 C 393.541 68.000 392.840 68.450 392.500 69.000 "/></g>
<g fill="#1D1D1BFF" stroke="#1D1D1BFF">
<path d="M 388.500 68.000 C 388.160 68.550 388.584 69.000 389.441 69.000 C 390.298 69.000 391.000 68.550 391.000 68.000 C 391.000 67.450 390.577 67.000 390.059 67.000 C 389.541 67.000 388.840 67.450 388.500 68.000 "/></g>
<g fill="#1D1D1BFF" stroke="#1D1D1BFF">
<path d="M 378.500 65.000 C 377.718 66.266 379.042 66.266 381.000 65.000 C 382.293 64.165 382.266 64.029 380.809 64.015 C 379.879 64.007 378.840 64.450 378.500 65.000 "/></g>
<g fill="#1D1D1BFF" stroke="#1D1D1BFF">
<path d="M 470.557 61.582 C 469.491 62.362 469.041 62.993 469.559 62.985 C 470.941 62.962 473.520 61.186 472.969 60.636 C 472.710 60.376 471.624 60.802 470.557 61.582 "/></g>
<g fill="#1D1D1BFF" stroke="#1D1D1BFF">
<path d="M 510.000 59.850 C 511.375 60.941 512.394 61.440 512.264 60.960 C 512.135 60.479 511.010 59.586 509.764 58.976 C 507.721 57.974 507.744 58.059 510.000 59.850 "/></g>
<g fill="#1D1D1BFF" stroke="#1D1D1BFF">
<path d="M 337.500 59.410 L 335.500 61.567 337.500 59.410 L 339.500 57.253 337.500 59.410 "/></g>
<g fill="#1D1D1BFF" stroke="#1D1D1BFF">
<path d="M 481.000 57.000 C 481.825 57.533 483.175 57.945 484.000 57.914 C 484.989 57.878 484.819 57.567 483.500 57.000 C 480.751 55.819 479.172 55.819 481.000 57.000 "/></g>
<g fill="#1D1D1BFF" stroke="#1D1D1BFF">
<path d="M 524.500 56.592 C 527.223 57.965 527.321 57.962 525.559 56.552 C 524.491 55.699 523.141 55.018 522.559 55.040 C 521.976 55.062 522.850 55.761 524.500 56.592 "/></g>
<g fill="#1D1D1BFF" stroke="#1D1D1BFF">
<path d="M 326.500 57.410 L 324.500 59.567 326.500 57.410 L 328.500 55.253 326.500 57.410 "/></g>
<g fill="#1D1D1BFF" stroke="#1D1D1BFF">
<path d="M 183.994 56.507 C 182.879 57.850 183.057 57.851 185.621 56.514 C 187.309 55.634 187.826 55.010 186.872 55.006 C 185.977 55.003 184.682 55.678 183.994 56.507 "/></g>
<g fill="#1D1D1BFF" stroke="#1D1D1BFF">
<path d="M 92.332 56.250 C 91.690 56.941 91.015 58.139 90.832 58.912 C 90.649 59.685 91.175 59.120 92.000 57.656 C 92.825 56.191 92.974 55.559 92.332 56.250 "/></g>
<g fill="#1D1D1BFF" stroke="#1D1D1BFF">
<path d="M 429.372 56.620 C 428.534 59.224 428.552 59.242 429.831 57.079 C 430.563 55.841 430.955 54.622 430.703 54.369 C 430.450 54.117 429.851 55.130 429.372 56.620 "/></g>
<g fill="#1D1D1BFF" stroke="#1D1D1BFF">
<path d="M 270.257 45.001 C 271.895 45.494 272.784 45.459 272.448 44.915 C 272.137 44.412 270.896 44.039 269.691 44.086 C 267.823 44.159 267.906 44.294 270.257 45.001 "/></g>
<g fill="#1D1D1BFF" stroke="#1D1D1BFF">
<path d="M 409.467 33.054 C 409.100 33.648 409.070 34.403 409.400 34.733 C 409.730 35.063 410.000 34.822 410.000 34.198 C 410.000 33.574 410.788 33.308 411.750 33.607 C 413.362 34.108 413.368 34.065 411.817 33.063 C 410.614 32.286 409.943 32.283 409.467 33.054 "/></g>
<g fill="#1D1D1BFF" stroke="#1D1D1BFF">
<path d="M 414.000 24.000 C 412.172 25.181 413.751 25.181 416.500 24.000 C 417.819 23.433 417.989 23.122 417.000 23.086 C 416.175 23.055 414.825 23.467 414.000 24.000 "/></g>
<g fill="#0086CEAB" stroke="#0086CEAB">
<path d="M 462.000 175.000 L 464.500 177.500 462.000 175.000 L 459.500 172.500 462.000 175.000 "/></g>
<g fill="#1D1D1BFF" stroke="#1D1D1BFF">
<path d="M 393.000 160.017 C 391.735 160.820 391.788 160.972 393.333 160.985 C 394.342 160.993 395.017 160.564 394.833 160.032 C 394.621 159.416 393.955 159.410 393.000 160.017 "/></g>
<g fill="#1D1D1BFF" stroke="#1D1D1BFF">
<path d="M 399.828 156.649 L 398.500 157.798 399.828 156.649 L 401.156 155.500 399.828 156.649 "/></g>
<g fill="#1D1D1BFF" stroke="#1D1D1BFF">
<path d="M 478.500 139.000 C 478.160 139.550 478.332 140.000 478.882 140.000 C 479.432 140.000 480.160 139.550 480.500 139.000 C 480.840 138.450 480.668 138.000 480.118 138.000 C 479.568 138.000 478.840 138.450 478.500 139.000 "/></g>
<g fill="#1D1D1BFF" stroke="#1D1D1BFF">
<path d="M 466.417 138.865 C 466.778 139.450 467.845 140.058 468.787 140.215 C 469.868 140.395 469.626 140.002 468.129 139.150 C 466.825 138.408 466.055 138.279 466.417 138.865 "/></g>
<g fill="#1D1D1BFF" stroke="#1D1D1BFF">
<path d="M 420.000 133.000 C 419.835 133.550 419.700 134.450 419.700 135.000 C 419.700 135.667 419.800 135.667 420.000 135.000 C 420.165 134.450 420.300 133.550 420.300 133.000 C 420.300 132.333 420.200 132.333 420.000 133.000 "/></g>
<g fill="#1D1D1BFF" stroke="#1D1D1BFF">
<path d="M 436.063 115.191 C 436.029 116.121 436.444 117.156 436.987 117.492 C 437.626 117.887 437.648 117.292 437.050 115.801 C 436.395 114.167 436.108 113.991 436.063 115.191 "/></g>
<g fill="#1D1D1BFF" stroke="#1D1D1BFF">
<path d="M 436.750 99.628 C 436.338 100.016 436.042 101.046 436.093 101.917 C 436.146 102.802 436.476 102.492 436.843 101.212 C 437.205 99.953 437.163 99.241 436.750 99.628 "/></g>
<g fill="#1D1D1BFF" stroke="#1D1D1BFF">
<path d="M 369.559 89.639 C 368.491 90.387 368.124 91.000 368.744 91.000 C 369.363 91.000 370.236 90.387 370.685 89.639 C 371.372 88.490 371.196 88.490 369.559 89.639 "/></g>
<g fill="#1D1D1BFF" stroke="#1D1D1BFF">
<path d="M 525.000 83.000 L 527.000 85.000 525.000 83.000 L 523.000 81.000 525.000 83.000 "/></g>
<g fill="#1D1D1BFF" stroke="#1D1D1BFF">
<path d="M 472.828 74.649 L 471.500 75.798 472.828 74.649 L 474.156 73.500 472.828 74.649 "/></g>
<g fill="#1D1D1BFF" stroke="#1D1D1BFF">
<path d="M 74.031 70.500 C 74.031 71.050 74.467 72.175 75.000 73.000 C 75.533 73.825 75.969 74.050 75.969 73.500 C 75.969 72.950 75.533 71.825 75.000 71.000 C 74.467 70.175 74.031 69.950 74.031 70.500 "/></g>
<g fill="#1D1D1BFF" stroke="#1D1D1BFF">
<path d="M 58.031 68.500 C 58.031 69.050 58.467 70.175 59.000 71.000 C 59.533 71.825 59.969 72.050 59.969 71.500 C 59.969 70.950 59.533 69.825 59.000 69.000 C 58.467 68.175 58.031 67.950 58.031 68.500 "/></g>
<g fill="#1D1D1BFF" stroke="#1D1D1BFF">
<path d="M 385.500 67.000 C 385.160 67.550 385.332 68.000 385.882 68.000 C 386.432 68.000 387.160 67.550 387.500 67.000 C 387.840 66.450 387.668 66.000 387.118 66.000 C 386.568 66.000 385.840 66.450 385.500 67.000 "/></g>
<g fill="#1D1D1BFF" stroke="#1D1D1BFF">
<path d="M 82.000 67.000 C 81.835 67.550 81.700 68.450 81.700 69.000 C 81.700 69.667 81.800 69.667 82.000 69.000 C 82.165 68.450 82.300 67.550 82.300 67.000 C 82.300 66.333 82.200 66.333 82.000 67.000 "/></g>
<g fill="#1D1D1BFF" stroke="#1D1D1BFF">
<path d="M 382.500 66.000 C 382.160 66.550 382.332 67.000 382.882 67.000 C 383.432 67.000 384.160 66.550 384.500 66.000 C 384.840 65.450 384.668 65.000 384.118 65.000 C 383.568 65.000 382.840 65.450 382.500 66.000 "/></g>
<g fill="#1D1D1BFF" stroke="#1D1D1BFF">
<path d="M 84.000 62.000 C 83.835 62.550 83.700 63.450 83.700 64.000 C 83.700 64.667 83.800 64.667 84.000 64.000 C 84.165 63.450 84.300 62.550 84.300 62.000 C 84.300 61.333 84.200 61.333 84.000 62.000 "/></g>
<g fill="#1D1D1BFF" stroke="#1D1D1BFF">
<path d="M 75.031 61.500 C 75.031 62.050 75.467 63.175 76.000 64.000 C 76.533 64.825 76.969 65.050 76.969 64.500 C 76.969 63.950 76.533 62.825 76.000 62.000 C 75.467 61.175 75.031 60.950 75.031 61.500 "/></g>
<g fill="#1D1D1BFF" stroke="#1D1D1BFF">
<path d="M 66.000 62.000 C 65.835 62.550 65.700 63.450 65.700 64.000 C 65.700 64.667 65.800 64.667 66.000 64.000 C 66.165 63.450 66.300 62.550 66.300 62.000 C 66.300 61.333 66.200 61.333 66.000 62.000 "/></g>
<g fill="#1D1D1BFF" stroke="#1D1D1BFF">
<path d="M 351.000 61.888 L 349.500 63.563 351.000 61.888 L 352.500 60.212 351.000 61.888 "/></g>
<g fill="#1D1D1BFF" stroke="#1D1D1BFF">
<path d="M 152.750 59.628 C 152.338 60.016 152.042 61.046 152.093 61.917 C 152.146 62.802 152.476 62.492 152.843 61.212 C 153.205 59.953 153.163 59.241 152.750 59.628 "/></g>
<g fill="#1D1D1BFF" stroke="#1D1D1BFF">
<path d="M 189.752 59.250 C 189.363 60.238 189.517 61.000 190.105 61.000 C 190.678 61.000 190.988 60.213 190.794 59.250 C 190.458 57.583 190.408 57.583 189.752 59.250 "/></g>
<g fill="#1D1D1BFF" stroke="#1D1D1BFF">
<path d="M 83.000 57.000 C 82.835 57.550 82.700 58.450 82.700 59.000 C 82.700 59.667 82.800 59.667 83.000 59.000 C 83.165 58.450 83.300 57.550 83.300 57.000 C 83.300 56.333 83.200 56.333 83.000 57.000 "/></g>
<g fill="#1D1D1BFF" stroke="#1D1D1BFF">
<path d="M 68.000 57.000 C 67.835 57.550 67.700 58.450 67.700 59.000 C 67.700 59.667 67.800 59.667 68.000 59.000 C 68.165 58.450 68.300 57.550 68.300 57.000 C 68.300 56.333 68.200 56.333 68.000 57.000 "/></g>
<g fill="#1D1D1BFF" stroke="#1D1D1BFF">
<path d="M 194.298 56.973 C 195.234 58.332 196.000 58.950 196.000 58.345 C 196.000 57.740 195.234 56.627 194.298 55.872 C 192.695 54.580 192.695 54.644 194.298 56.973 "/></g>
<g fill="#1D1D1BFF" stroke="#1D1D1BFF">
<path d="M 432.000 50.000 C 431.835 50.550 431.700 51.450 431.700 52.000 C 431.700 52.667 431.800 52.667 432.000 52.000 C 432.165 51.450 432.300 50.550 432.300 50.000 C 432.300 49.333 432.200 49.333 432.000 50.000 "/></g>
<g fill="#1D1D1BFF" stroke="#1D1D1BFF">
<path d="M 333.000 50.888 L 331.500 52.563 333.000 50.888 L 334.500 49.212 333.000 50.888 "/></g>
<g fill="#1D1D1BFF" stroke="#1D1D1BFF">
<path d="M 475.000 44.000 C 474.175 44.533 473.950 44.969 474.500 44.969 C 475.050 44.969 476.175 44.533 477.000 44.000 C 477.825 43.467 478.050 43.031 477.500 43.031 C 476.950 43.031 475.825 43.467 475.000 44.000 "/></g>
<g fill="#1D1D1BFF" stroke="#1D1D1BFF">
<path d="M 526.000 42.000 C 526.825 42.533 527.950 42.969 528.500 42.969 C 529.050 42.969 528.825 42.533 528.000 42.000 C 527.175 41.467 526.050 41.031 525.500 41.031 C 524.950 41.031 525.175 41.467 526.000 42.000 "/></g>
<g fill="#00000001" stroke="#00000001">
<path d="M 122.000 133.000 L 124.000 135.000 122.000 133.000 L 120.000 131.000 122.000 133.000 "/></g>
<g fill="#0099E60A" stroke="#0099E60A">
<path d="M 458.000 193.000 L 460.000 195.000 458.000 193.000 L 456.000 191.000 458.000 193.000 "/></g>
<g fill="#0099E60A" stroke="#0099E60A">
<path d="M 383.000 110.000 C 383.825 110.533 384.950 110.969 385.500 110.969 C 386.050 110.969 385.825 110.533 385.000 110.000 C 384.175 109.467 383.050 109.031 382.500 109.031 C 381.950 109.031 382.175 109.467 383.000 110.000 "/></g>
<g fill="#0088CE2F" stroke="#0088CE2F">
<path d="M 414.000 118.888 L 412.500 120.563 414.000 118.888 L 415.500 117.212 414.000 118.888 "/></g>
</svg>
