<?xml version="1.0" encoding="utf-8"?><svg version="1.1" id="Layer_1" xmlns="http://www.w3.org/2000/svg" xmlns:xlink="http://www.w3.org/1999/xlink" x="0px" y="0px" viewBox="0 0 122.88 81.75" style="enable-background:new 0 0 122.88 81.75" xml:space="preserve"><g><path d="M70.66,4.52c1.68,0,3.2,0.68,4.3,1.78c1.1,1.1,1.78,2.62,1.78,4.3c0,1.68-0.68,3.2-1.78,4.3c-1.1,1.1-2.62,1.78-4.3,1.78 c-1.68,0-3.2-0.68-4.3-1.78c-1.1-1.1-1.78-2.62-1.78-4.3c0-1.68,0.68-3.2,1.78-4.3C67.45,5.21,68.98,4.52,70.66,4.52L70.66,4.52 L70.66,4.52z M97.31,60.16c-2.51-2.42-4.92-4.69-5.75-5.17c-1.96-1.12-6.48-4.21-8.47-4.17c-1.46,0.04-2.83,0.86-4.11,2.54 l-6.7,10.1l-1.26,1.3l-1.26-1.3l-6.7-10.1c-1.28-1.68-2.65-2.51-4.11-2.54c-1.99-0.04-6.51,3.05-8.47,4.17l-4.66,2.65L13.56,64.7 c-2.08,1.54-15.8,16.53-13.24,17.06l56.99,0h0.04h12l53.54,0v-12.4l-9.82-4.63c-3.16-1.49-6.43,0.98-8.15,1.81V48.11h16.21 c1.62-0.19,1.99-2.16,1.25-3.02l-0.99-1.15l-8.99-10.56h5.99c1.42-0.27,2.05-2.23,0.81-3.45l-10.31-12.08h2.72 c1.9,0,2.83-1.64,1.74-3.21L103.29,2.9c-0.58-0.67-1.16-1.58-2.13-1.61c-1.12-0.03-1.82,1.1-2.46,1.87L89.23,14.4 c-1.22,1.64-0.75,3.4,1.15,3.34h3.03L83.03,29.94c-1.14,1.42-0.44,3.44,1.43,3.17h5.16l0.28,0.28L80.26,44.7 c-1.08,1.66-0.57,3.65,1.96,3.42h15.09V60.16L97.31,60.16z M33.67,4.75c1.61-0.55,3.3-0.39,4.72,0.3c1.42,0.69,2.58,1.94,3.13,3.55 c0.55,1.61,0.4,3.3-0.3,4.72c-0.69,1.42-1.94,2.58-3.55,3.13c-1.61,0.55-3.3,0.4-4.72-0.3c-1.42-0.69-2.58-1.94-3.13-3.55 c-0.55-1.61-0.4-3.3,0.3-4.72C30.82,6.46,32.05,5.31,33.67,4.75L33.67,4.75L33.67,4.75z M49.64,22.04 c-0.24-0.88,0.29-1.79,1.17-2.02c0.88-0.24,1.79,0.29,2.02,1.17l0.53,1.96l0.07-0.03l0.02-0.01c0.63-0.21,1.36-0.08,2,0.3 c0.46,0.27,0.87,0.66,1.16,1.15c0.3,0.49,0.48,1.07,0.48,1.71c-0.01,0.92-0.41,1.94-1.43,2.96c-0.04,0.04-0.09,0.08-0.15,0.09 l-0.45,0.18l4.72,17.6c-0.3-0.04-0.61-0.08-0.91-0.08c-0.73-0.02-1.55,0.17-2.4,0.47l-4.5-16.77l-1.16,0.46l0,0l-0.43,0.16 c-2.51,0.89-4.34,1.54-7.53,0.75c-0.02-0.01-0.04-0.01-0.07-0.02c-2.23-0.86-3.39-2.07-4.51-3.25l-0.16-0.17l-1.43,9.08 c1.28,0.8,2.55,1.4,3.75,1.96c3.65,1.7,6.65,3.11,7.3,8.84c0.12,1.03,0.06,2,0.01,3.05v0.02c-0.01,0.15-0.02,0.31-0.03,0.69 l-1.39,0.79c-1.58,0.1-3.36,0.44-5.24,0.94c0.03-0.76,0.07-1.51,0.11-2.26l0.03-0.52c0.03-0.6,0.06-1.15,0.03-1.67 c-0.03-0.49-0.12-0.95-0.33-1.4l-0.06-0.12c-0.23-0.49-0.44-0.96-0.75-1.1c-0.63-0.29-1.61-0.65-2.74-1.02 c-1.29-0.43-2.73-0.86-4-1.21c-0.93,3.09-2.2,5.13-3.55,8.68c-0.47,1.22-0.94,2.42-1.43,3.57c-0.46,0.2-0.89,0.39-1.31,0.58 c-2.08,0.93-3.52,1.65-5.73,1.18c-0.23-0.05-0.47-0.09-0.71-0.14c0.89-2.31,1.83-4.92,2.75-7.55c1.38-3.94,2.7-6.28,3.67-9.5 c-0.58-0.71-1.13-1.5-1.51-2.38c-0.42-0.96-0.62-2.01-0.41-3.13l2.03-10.99l-0.11-0.01c-0.71-0.03-1.29-0.06-1.96,0.24 c-0.93,0.41-1.65,1.23-2.47,2.15c-0.33,0.37-0.67,0.76-1.06,1.15l-0.03,0.02c-0.29,0.3-0.59,0.61-0.88,0.9l-3.59,3.63 c-0.16,0.16-0.4,0.16-0.56,0l-3.91-4.11c-0.15-0.16-0.15-0.41,0.01-0.56l3.58-3.62c0.31-0.31,0.58-0.59,0.83-0.85l0.04-0.04 c1.61-1.76,2.93-3.18,4.61-4.13c1.71-0.96,3.75-1.45,6.81-1.31h0.01c1.09,0.01,2.38,0.13,3.44,0.23c0.49,0.04,0.94,0.09,1.31,0.11 c5.15,0.34,7.57,3.05,9.44,5.16c0.83,0.93,1.54,1.74,2.32,2.11c0.36,0.17,0.94-0.07,1.59-0.34c0.39-0.17,0.81-0.34,1.25-0.46 c0.29-0.11,0.44-0.17,0.56-0.21c0.16-0.06,0.26-0.1,0.33-0.13l1.53-0.61L49.64,22.04L49.64,22.04L49.64,22.04z M65.22,2.28 c-0.19-0.32-0.08-0.74,0.25-0.93c0.32-0.19,0.74-0.08,0.93,0.25l0.87,1.51c0.19,0.32,0.08,0.74-0.25,0.93 c-0.33,0.19-0.74,0.08-0.93-0.25L65.22,2.28L65.22,2.28L65.22,2.28z M70.11,0.68c0-0.38,0.3-0.68,0.68-0.68s0.68,0.31,0.68,0.68 v1.75c0,0.38-0.3,0.68-0.68,0.68s-0.68-0.31-0.68-0.68V0.68L70.11,0.68L70.11,0.68z M75.15,1.74c0.19-0.32,0.6-0.44,0.93-0.25 c0.32,0.19,0.44,0.6,0.25,0.93l-0.87,1.51c-0.19,0.33-0.6,0.44-0.93,0.25s-0.44-0.6-0.25-0.93L75.15,1.74L75.15,1.74L75.15,1.74z M78.98,5.18c0.33-0.19,0.74-0.08,0.93,0.25c0.19,0.32,0.08,0.74-0.25,0.93l-1.51,0.87c-0.32,0.19-0.74,0.08-0.93-0.25 c-0.19-0.32-0.08-0.74,0.25-0.93L78.98,5.18L78.98,5.18L78.98,5.18z M80.58,10.07c0.38,0,0.68,0.3,0.68,0.68 c0,0.38-0.31,0.68-0.68,0.68h-1.75c-0.38,0-0.68-0.3-0.68-0.68c0-0.38,0.3-0.68,0.68-0.68H80.58L80.58,10.07L80.58,10.07z M79.52,15.11c0.32,0.19,0.44,0.6,0.25,0.93c-0.19,0.32-0.6,0.44-0.93,0.25l-1.51-0.87c-0.32-0.19-0.44-0.6-0.25-0.93 c0.19-0.33,0.6-0.44,0.93-0.25L79.52,15.11L79.52,15.11L79.52,15.11z M76.09,18.94c0.19,0.32,0.08,0.74-0.25,0.93 c-0.32,0.19-0.74,0.08-0.93-0.25l-0.87-1.51c-0.19-0.32-0.08-0.74,0.25-0.93c0.32-0.19,0.74-0.08,0.93,0.25L76.09,18.94 L76.09,18.94L76.09,18.94z M71.2,20.54c0,0.38-0.31,0.68-0.68,0.68c-0.38,0-0.68-0.31-0.68-0.68v-1.75c0-0.38,0.3-0.68,0.68-0.68 c0.38,0,0.68,0.3,0.68,0.68V20.54L71.2,20.54L71.2,20.54z M66.16,19.48c-0.19,0.32-0.6,0.44-0.93,0.25 c-0.32-0.19-0.44-0.6-0.25-0.93l0.87-1.51c0.19-0.32,0.6-0.44,0.93-0.25s0.44,0.6,0.25,0.93L66.16,19.48L66.16,19.48L66.16,19.48z M62.33,16.04c-0.32,0.19-0.74,0.08-0.93-0.25c-0.19-0.32-0.08-0.74,0.25-0.93l1.51-0.87c0.32-0.19,0.74-0.08,0.93,0.25 c0.19,0.32,0.08,0.74-0.25,0.93L62.33,16.04L62.33,16.04L62.33,16.04z M60.73,11.15c-0.38,0-0.68-0.31-0.68-0.68 c0-0.38,0.31-0.68,0.68-0.68h1.75c0.38,0,0.68,0.3,0.68,0.68c0,0.38-0.3,0.68-0.68,0.68H60.73L60.73,11.15L60.73,11.15z M61.79,6.11c-0.32-0.19-0.44-0.6-0.25-0.93c0.19-0.32,0.6-0.44,0.93-0.25l1.51,0.87c0.33,0.19,0.44,0.6,0.25,0.93 c-0.19,0.32-0.6,0.44-0.93,0.25L61.79,6.11L61.79,6.11L61.79,6.11z"/></g></svg>