<svg width="24" height="24" viewBox="0 0 24 24" fill="none" xmlns="http://www.w3.org/2000/svg">
<path fill-rule="evenodd" clip-rule="evenodd" d="M15.339 2.57861L21.3918 8.6356C20.4107 9.6023 20.4107 11.1883 21.3918 12.1701L10.9616 22.6075C9.98048 21.6256 8.41067 21.6256 7.42954 22.6075L1.37671 16.5505C2.35784 15.5687 2.35784 13.9978 1.37671 13.016L11.8069 2.57861C12.788 3.56042 14.3578 3.56042 15.339 2.57861ZM12.3805 17.3661L17.3918 12.3514C18.3578 11.3847 18.3578 9.79866 17.3918 8.80175L15.188 6.59646C14.2069 5.61466 12.622 5.61466 11.6409 6.59646L6.62954 11.6112C5.64841 12.593 5.64841 14.179 6.62954 15.1608L8.83331 17.3661C9.81444 18.3479 11.3994 18.3479 12.3805 17.3661Z" fill="#FFD6CE"></path>
<path fill-rule="evenodd" clip-rule="evenodd" d="M22.8868 7.69894C23.0377 7.54789 23.0377 7.29111 22.8868 7.14006L16.8641 1.11329C16.7132 0.962238 16.4566 0.962238 16.3057 1.11329C15.4906 1.92894 14.1623 1.92894 13.3472 1.11329C13.1962 0.962238 12.9396 0.962238 12.7887 1.11329L1.12075 12.759C1.04528 12.8345 1 12.9403 1 13.046C1 13.1517 1.04528 13.2575 1.12075 13.333C1.93585 14.1486 1.93585 15.4779 1.12075 16.2935C0.969811 16.4446 0.969811 16.7013 1.12075 16.8524L4.13962 19.8733C4.29057 20.0244 4.54717 20.0244 4.69811 19.8733L7.73208 16.8373L8.54717 17.6529C9.09057 18.1967 9.83019 18.4988 10.6 18.4988C11.3698 18.4988 12.1094 18.1967 12.6528 17.6529L17.6641 12.6382C18.2075 12.0944 18.5094 11.3543 18.5094 10.5839C18.5094 9.81359 18.2075 9.07346 17.6641 8.52969L15.4604 6.32441C14.917 5.78064 14.1774 5.47854 13.4075 5.47854C12.6377 5.47854 11.8981 5.78064 11.3547 6.32441L6.3434 11.3392C5.21132 12.472 5.21132 14.3148 6.3434 15.4476L7.15849 16.2633L4.41132 19.0124L1.95094 16.5503C2.3283 16.0518 2.53962 15.4476 2.53962 14.7981C2.53962 14.1637 2.3283 13.5596 1.95094 13.046L13.0755 1.91383C13.5736 2.29145 14.1774 2.50292 14.8264 2.50292C15.4755 2.50292 16.0641 2.29145 16.5774 1.91383L22.0717 7.41195C21.2868 8.43907 21.2868 9.87401 22.0717 10.9011L10.9321 22.0484C10.434 21.6708 9.83019 21.4593 9.18113 21.4593C8.53207 21.4593 7.9434 21.6708 7.43019 22.0484L5.87547 20.4926C5.72453 20.3416 5.46792 20.3416 5.31698 20.4926C5.16604 20.6437 5.16604 20.9004 5.31698 21.0515L7.1434 22.8792C7.29434 23.0302 7.55094 23.0302 7.70189 22.8792C8.09434 22.4864 8.62264 22.2599 9.18113 22.2599C9.73962 22.2599 10.2679 22.4713 10.6604 22.8792C10.7358 22.9547 10.8415 23 10.9472 23C11.0528 23 11.1585 22.9547 11.234 22.8792L22.8868 11.2183C23.0377 11.0673 23.0377 10.8105 22.8868 10.6595C22.0717 9.8438 22.0717 8.51459 22.8868 7.69894ZM6.90189 14.8737C6.08679 14.058 6.08679 12.7137 6.90189 11.898L11.9132 6.88328C12.3057 6.49056 12.834 6.26399 13.4075 6.26399C13.966 6.26399 14.4943 6.49056 14.9019 6.88328L17.1057 9.08857C17.4981 9.48129 17.7245 10.01 17.7245 10.5839C17.7245 11.1428 17.4981 11.6715 17.1057 12.0793L12.0943 17.0941C11.7019 17.4868 11.1736 17.7134 10.6 17.7134C10.0264 17.7134 9.51321 17.4868 9.10566 17.0941L8.29057 16.2784L11.3959 13.171C11.578 13.265 11.7847 13.3181 12.0038 13.3181C12.7374 13.3181 13.3321 12.723 13.3321 11.9888C13.3321 11.2547 12.7374 10.6596 12.0038 10.6596C11.2702 10.6596 10.6755 11.2547 10.6755 11.9888C10.6755 12.2159 10.7324 12.4297 10.8327 12.6167L7.73208 15.7195L6.90189 14.8737Z" fill="#FF6371"></path>
</svg>